<?xml version="1.0" encoding="utf-8"?>
<svg xmlns="http://www.w3.org/2000/svg" xmlns:xlink="http://www.w3.org/1999/xlink" style="margin: auto; background: rgb(255, 178, 91); display: block; z-index: 1; position: relative; shape-rendering: auto;" width="1140" height="764" preserveAspectRatio="xMidYMid" viewBox="0 0 1140 764">
<g transform="translate(570,382) scale(1,1) translate(-570,-382)"><g transform="translate(1033.8973501320572 -100) rotate(0)">
  <animateTransform attributeName="transform" type="translate" keyTimes="0;1" values="1033.8973501320572 -100;1240 353.7510045604708" dur="25s" repeatCount="indefinite" begin="-14.010980586681459s"></animateTransform>
  <animateTransform attributeName="transform" type="rotate" keyTimes="0;1" begin="-14.010980586681459s" values="0 50 50;538.56569044637 50 50" dur="25s" repeatCount="indefinite" additive="sum"></animateTransform>
  <path d="M87.422,66.495c-2.009-0.544-4.049-0.97-6.107-1.283c10.617-11.116,15.747-27.37,13.129-42.549 c-5.236,1.77-10.223,4.252-14.824,7.313c-4.13,2.747-7.948,5.961-11.374,9.55C67.425,24.863,61.344,10.451,50.991,0 c-4.015,5.451-7.281,11.444-9.753,17.744c-3.579,9.122-5.501,18.893-5.669,28.691c-4.79-7.979-11.256-14.955-18.858-20.322 c-4.514-3.187-9.431-5.806-14.616-7.72c-3.361,16.717,2.731,35.015,15.445,46.379c0.369,0.33,0.745,0.654,1.126,0.972 c-2.359,0.411-4.689,0.983-6.969,1.714C7.582,68.775,3.634,70.61,0,72.945c8.85,9.963,23.134,14.771,36.208,12.186 c3.524-0.697,7.002-1.919,9.887-4.057c0.073-0.054,0.145-0.111,0.218-0.167c-0.987,5.662-2.714,11.136-5.104,16.221l7.509,2.806 c1.698-5.797,2.631-11.748,2.814-17.669c0.107,0.076,0.215,0.152,0.324,0.225c3.142,2.114,6.863,3.232,10.607,3.796 C76.352,88.379,91.161,82.628,100,71.71C96.061,69.427,91.816,67.684,87.422,66.495z" fill="#ffc46c" transform="scale(0.6764386342176937)"></path>
</g><g transform="translate(-100 199.18353013920148) rotate(0)">
  <animateTransform attributeName="transform" type="translate" keyTimes="0;1" values="-100 199.18353013920148;756.8827782337639 864" dur="25s" repeatCount="indefinite" begin="-23.44191408809791s"></animateTransform>
  <animateTransform attributeName="transform" type="rotate" keyTimes="0;1" begin="-23.44191408809791s" values="0 50 50;875.3013633264059 50 50" dur="25s" repeatCount="indefinite" additive="sum"></animateTransform>
  <path d="M87.422,66.495c-2.009-0.544-4.049-0.97-6.107-1.283c10.617-11.116,15.747-27.37,13.129-42.549 c-5.236,1.77-10.223,4.252-14.824,7.313c-4.13,2.747-7.948,5.961-11.374,9.55C67.425,24.863,61.344,10.451,50.991,0 c-4.015,5.451-7.281,11.444-9.753,17.744c-3.579,9.122-5.501,18.893-5.669,28.691c-4.79-7.979-11.256-14.955-18.858-20.322 c-4.514-3.187-9.431-5.806-14.616-7.72c-3.361,16.717,2.731,35.015,15.445,46.379c0.369,0.33,0.745,0.654,1.126,0.972 c-2.359,0.411-4.689,0.983-6.969,1.714C7.582,68.775,3.634,70.61,0,72.945c8.85,9.963,23.134,14.771,36.208,12.186 c3.524-0.697,7.002-1.919,9.887-4.057c0.073-0.054,0.145-0.111,0.218-0.167c-0.987,5.662-2.714,11.136-5.104,16.221l7.509,2.806 c1.698-5.797,2.631-11.748,2.814-17.669c0.107,0.076,0.215,0.152,0.324,0.225c3.142,2.114,6.863,3.232,10.607,3.796 C76.352,88.379,91.161,82.628,100,71.71C96.061,69.427,91.816,67.684,87.422,66.495z" fill="#ffc46c" transform="scale(0.7707349506755362)"></path>
</g><g transform="translate(-100 108.3831487140256) rotate(0)">
  <animateTransform attributeName="transform" type="translate" keyTimes="0;1" values="-100 108.3831487140256;1240 718.9663800341334" dur="25s" repeatCount="indefinite" begin="-22.502917178150682s"></animateTransform>
  <animateTransform attributeName="transform" type="rotate" keyTimes="0;1" begin="-22.502917178150682s" values="0 50 50;797.1100277272407 50 50" dur="25s" repeatCount="indefinite" additive="sum"></animateTransform>
  <path d="M87.422,66.495c-2.009-0.544-4.049-0.97-6.107-1.283c10.617-11.116,15.747-27.37,13.129-42.549 c-5.236,1.77-10.223,4.252-14.824,7.313c-4.13,2.747-7.948,5.961-11.374,9.55C67.425,24.863,61.344,10.451,50.991,0 c-4.015,5.451-7.281,11.444-9.753,17.744c-3.579,9.122-5.501,18.893-5.669,28.691c-4.79-7.979-11.256-14.955-18.858-20.322 c-4.514-3.187-9.431-5.806-14.616-7.72c-3.361,16.717,2.731,35.015,15.445,46.379c0.369,0.33,0.745,0.654,1.126,0.972 c-2.359,0.411-4.689,0.983-6.969,1.714C7.582,68.775,3.634,70.61,0,72.945c8.85,9.963,23.134,14.771,36.208,12.186 c3.524-0.697,7.002-1.919,9.887-4.057c0.073-0.054,0.145-0.111,0.218-0.167c-0.987,5.662-2.714,11.136-5.104,16.221l7.509,2.806 c1.698-5.797,2.631-11.748,2.814-17.669c0.107,0.076,0.215,0.152,0.324,0.225c3.142,2.114,6.863,3.232,10.607,3.796 C76.352,88.379,91.161,82.628,100,71.71C96.061,69.427,91.816,67.684,87.422,66.495z" fill="#ff956e" transform="scale(0.9366453457944058)"></path>
</g><g transform="translate(-100 245.0924919169887) rotate(0)">
  <animateTransform attributeName="transform" type="translate" keyTimes="0;1" values="-100 245.0924919169887;1236.783968591726 864" dur="25s" repeatCount="indefinite" begin="-20.29703014360587s"></animateTransform>
  <animateTransform attributeName="transform" type="rotate" keyTimes="0;1" begin="-20.29703014360587s" values="0 50 50;392.3231901526485 50 50" dur="25s" repeatCount="indefinite" additive="sum"></animateTransform>
  <path d="M87.422,66.495c-2.009-0.544-4.049-0.97-6.107-1.283c10.617-11.116,15.747-27.37,13.129-42.549 c-5.236,1.77-10.223,4.252-14.824,7.313c-4.13,2.747-7.948,5.961-11.374,9.55C67.425,24.863,61.344,10.451,50.991,0 c-4.015,5.451-7.281,11.444-9.753,17.744c-3.579,9.122-5.501,18.893-5.669,28.691c-4.79-7.979-11.256-14.955-18.858-20.322 c-4.514-3.187-9.431-5.806-14.616-7.72c-3.361,16.717,2.731,35.015,15.445,46.379c0.369,0.33,0.745,0.654,1.126,0.972 c-2.359,0.411-4.689,0.983-6.969,1.714C7.582,68.775,3.634,70.61,0,72.945c8.85,9.963,23.134,14.771,36.208,12.186 c3.524-0.697,7.002-1.919,9.887-4.057c0.073-0.054,0.145-0.111,0.218-0.167c-0.987,5.662-2.714,11.136-5.104,16.221l7.509,2.806 c1.698-5.797,2.631-11.748,2.814-17.669c0.107,0.076,0.215,0.152,0.324,0.225c3.142,2.114,6.863,3.232,10.607,3.796 C76.352,88.379,91.161,82.628,100,71.71C96.061,69.427,91.816,67.684,87.422,66.495z" fill="#ff956e" transform="scale(1.3143809880719295)"></path>
</g><g transform="translate(655.9320230454479 -100) rotate(0)">
  <animateTransform attributeName="transform" type="translate" keyTimes="0;1" values="655.9320230454479 -100;1240 804.1932199182885" dur="25s" repeatCount="indefinite" begin="-1.65237181360684s"></animateTransform>
  <animateTransform attributeName="transform" type="rotate" keyTimes="0;1" begin="-1.65237181360684s" values="0 50 50;224.36999406763942 50 50" dur="25s" repeatCount="indefinite" additive="sum"></animateTransform>
  <path d="M87.422,66.495c-2.009-0.544-4.049-0.97-6.107-1.283c10.617-11.116,15.747-27.37,13.129-42.549 c-5.236,1.77-10.223,4.252-14.824,7.313c-4.13,2.747-7.948,5.961-11.374,9.55C67.425,24.863,61.344,10.451,50.991,0 c-4.015,5.451-7.281,11.444-9.753,17.744c-3.579,9.122-5.501,18.893-5.669,28.691c-4.79-7.979-11.256-14.955-18.858-20.322 c-4.514-3.187-9.431-5.806-14.616-7.72c-3.361,16.717,2.731,35.015,15.445,46.379c0.369,0.33,0.745,0.654,1.126,0.972 c-2.359,0.411-4.689,0.983-6.969,1.714C7.582,68.775,3.634,70.61,0,72.945c8.85,9.963,23.134,14.771,36.208,12.186 c3.524-0.697,7.002-1.919,9.887-4.057c0.073-0.054,0.145-0.111,0.218-0.167c-0.987,5.662-2.714,11.136-5.104,16.221l7.509,2.806 c1.698-5.797,2.631-11.748,2.814-17.669c0.107,0.076,0.215,0.152,0.324,0.225c3.142,2.114,6.863,3.232,10.607,3.796 C76.352,88.379,91.161,82.628,100,71.71C96.061,69.427,91.816,67.684,87.422,66.495z" fill="#f86161" transform="scale(1.4292160823238054)"></path>
</g><g transform="translate(1023.606772807854 -100) rotate(0)">
  <animateTransform attributeName="transform" type="translate" keyTimes="0;1" values="1023.606772807854 -100;1240 916.7637649796067" dur="25s" repeatCount="indefinite" begin="-20.436026693886156s"></animateTransform>
  <animateTransform attributeName="transform" type="rotate" keyTimes="0;1" begin="-20.436026693886156s" values="0 50 50;861.5178113753826 50 50" dur="25s" repeatCount="indefinite" additive="sum"></animateTransform>
  <path d="M87.422,66.495c-2.009-0.544-4.049-0.97-6.107-1.283c10.617-11.116,15.747-27.37,13.129-42.549 c-5.236,1.77-10.223,4.252-14.824,7.313c-4.13,2.747-7.948,5.961-11.374,9.55C67.425,24.863,61.344,10.451,50.991,0 c-4.015,5.451-7.281,11.444-9.753,17.744c-3.579,9.122-5.501,18.893-5.669,28.691c-4.79-7.979-11.256-14.955-18.858-20.322 c-4.514-3.187-9.431-5.806-14.616-7.72c-3.361,16.717,2.731,35.015,15.445,46.379c0.369,0.33,0.745,0.654,1.126,0.972 c-2.359,0.411-4.689,0.983-6.969,1.714C7.582,68.775,3.634,70.61,0,72.945c8.85,9.963,23.134,14.771,36.208,12.186 c3.524-0.697,7.002-1.919,9.887-4.057c0.073-0.054,0.145-0.111,0.218-0.167c-0.987,5.662-2.714,11.136-5.104,16.221l7.509,2.806 c1.698-5.797,2.631-11.748,2.814-17.669c0.107,0.076,0.215,0.152,0.324,0.225c3.142,2.114,6.863,3.232,10.607,3.796 C76.352,88.379,91.161,82.628,100,71.71C96.061,69.427,91.816,67.684,87.422,66.495z" fill="#ffc46c" transform="scale(1.2761800851172151)"></path>
</g><g transform="translate(304.78462897847254 -100) rotate(0)">
  <animateTransform attributeName="transform" type="translate" keyTimes="0;1" values="304.78462897847254 -100;1275.5871474409628 864" dur="25s" repeatCount="indefinite" begin="-1.9968106387913243s"></animateTransform>
  <animateTransform attributeName="transform" type="rotate" keyTimes="0;1" begin="-1.9968106387913243s" values="0 50 50;970.1639795827905 50 50" dur="25s" repeatCount="indefinite" additive="sum"></animateTransform>
  <path d="M87.422,66.495c-2.009-0.544-4.049-0.97-6.107-1.283c10.617-11.116,15.747-27.37,13.129-42.549 c-5.236,1.77-10.223,4.252-14.824,7.313c-4.13,2.747-7.948,5.961-11.374,9.55C67.425,24.863,61.344,10.451,50.991,0 c-4.015,5.451-7.281,11.444-9.753,17.744c-3.579,9.122-5.501,18.893-5.669,28.691c-4.79-7.979-11.256-14.955-18.858-20.322 c-4.514-3.187-9.431-5.806-14.616-7.72c-3.361,16.717,2.731,35.015,15.445,46.379c0.369,0.33,0.745,0.654,1.126,0.972 c-2.359,0.411-4.689,0.983-6.969,1.714C7.582,68.775,3.634,70.61,0,72.945c8.85,9.963,23.134,14.771,36.208,12.186 c3.524-0.697,7.002-1.919,9.887-4.057c0.073-0.054,0.145-0.111,0.218-0.167c-0.987,5.662-2.714,11.136-5.104,16.221l7.509,2.806 c1.698-5.797,2.631-11.748,2.814-17.669c0.107,0.076,0.215,0.152,0.324,0.225c3.142,2.114,6.863,3.232,10.607,3.796 C76.352,88.379,91.161,82.628,100,71.71C96.061,69.427,91.816,67.684,87.422,66.495z" fill="#f86161" transform="scale(1.12159275582609)"></path>
</g><g transform="translate(936.6549076782306 -100) rotate(0)">
  <animateTransform attributeName="transform" type="translate" keyTimes="0;1" values="936.6549076782306 -100;1240 884.6200748163434" dur="25s" repeatCount="indefinite" begin="-2.661788954862204s"></animateTransform>
  <animateTransform attributeName="transform" type="rotate" keyTimes="0;1" begin="-2.661788954862204s" values="0 50 50;303.74561892206674 50 50" dur="25s" repeatCount="indefinite" additive="sum"></animateTransform>
  <path d="M87.422,66.495c-2.009-0.544-4.049-0.97-6.107-1.283c10.617-11.116,15.747-27.37,13.129-42.549 c-5.236,1.77-10.223,4.252-14.824,7.313c-4.13,2.747-7.948,5.961-11.374,9.55C67.425,24.863,61.344,10.451,50.991,0 c-4.015,5.451-7.281,11.444-9.753,17.744c-3.579,9.122-5.501,18.893-5.669,28.691c-4.79-7.979-11.256-14.955-18.858-20.322 c-4.514-3.187-9.431-5.806-14.616-7.72c-3.361,16.717,2.731,35.015,15.445,46.379c0.369,0.33,0.745,0.654,1.126,0.972 c-2.359,0.411-4.689,0.983-6.969,1.714C7.582,68.775,3.634,70.61,0,72.945c8.85,9.963,23.134,14.771,36.208,12.186 c3.524-0.697,7.002-1.919,9.887-4.057c0.073-0.054,0.145-0.111,0.218-0.167c-0.987,5.662-2.714,11.136-5.104,16.221l7.509,2.806 c1.698-5.797,2.631-11.748,2.814-17.669c0.107,0.076,0.215,0.152,0.324,0.225c3.142,2.114,6.863,3.232,10.607,3.796 C76.352,88.379,91.161,82.628,100,71.71C96.061,69.427,91.816,67.684,87.422,66.495z" fill="#ff9f32" transform="scale(1.0675213202164309)"></path>
</g><g transform="translate(-100 66.59909035083773) rotate(0)">
  <animateTransform attributeName="transform" type="translate" keyTimes="0;1" values="-100 66.59909035083773;1240 467.8558149714835" dur="25s" repeatCount="indefinite" begin="-18.512022099184s"></animateTransform>
  <animateTransform attributeName="transform" type="rotate" keyTimes="0;1" begin="-18.512022099184s" values="0 50 50;336.5497768811031 50 50" dur="25s" repeatCount="indefinite" additive="sum"></animateTransform>
  <path d="M87.422,66.495c-2.009-0.544-4.049-0.97-6.107-1.283c10.617-11.116,15.747-27.37,13.129-42.549 c-5.236,1.77-10.223,4.252-14.824,7.313c-4.13,2.747-7.948,5.961-11.374,9.55C67.425,24.863,61.344,10.451,50.991,0 c-4.015,5.451-7.281,11.444-9.753,17.744c-3.579,9.122-5.501,18.893-5.669,28.691c-4.79-7.979-11.256-14.955-18.858-20.322 c-4.514-3.187-9.431-5.806-14.616-7.72c-3.361,16.717,2.731,35.015,15.445,46.379c0.369,0.33,0.745,0.654,1.126,0.972 c-2.359,0.411-4.689,0.983-6.969,1.714C7.582,68.775,3.634,70.61,0,72.945c8.85,9.963,23.134,14.771,36.208,12.186 c3.524-0.697,7.002-1.919,9.887-4.057c0.073-0.054,0.145-0.111,0.218-0.167c-0.987,5.662-2.714,11.136-5.104,16.221l7.509,2.806 c1.698-5.797,2.631-11.748,2.814-17.669c0.107,0.076,0.215,0.152,0.324,0.225c3.142,2.114,6.863,3.232,10.607,3.796 C76.352,88.379,91.161,82.628,100,71.71C96.061,69.427,91.816,67.684,87.422,66.495z" fill="#ffc46c" transform="scale(0.8239221097670253)"></path>
</g><g transform="translate(1104.1412665810092 -100) rotate(0)">
  <animateTransform attributeName="transform" type="translate" keyTimes="0;1" values="1104.1412665810092 -100;1817.0169061404326 864" dur="25s" repeatCount="indefinite" begin="-16.117578111890325s"></animateTransform>
  <animateTransform attributeName="transform" type="rotate" keyTimes="0;1" begin="-16.117578111890325s" values="0 50 50;240.28300807135324 50 50" dur="25s" repeatCount="indefinite" additive="sum"></animateTransform>
  <path d="M87.422,66.495c-2.009-0.544-4.049-0.97-6.107-1.283c10.617-11.116,15.747-27.37,13.129-42.549 c-5.236,1.77-10.223,4.252-14.824,7.313c-4.13,2.747-7.948,5.961-11.374,9.55C67.425,24.863,61.344,10.451,50.991,0 c-4.015,5.451-7.281,11.444-9.753,17.744c-3.579,9.122-5.501,18.893-5.669,28.691c-4.79-7.979-11.256-14.955-18.858-20.322 c-4.514-3.187-9.431-5.806-14.616-7.72c-3.361,16.717,2.731,35.015,15.445,46.379c0.369,0.33,0.745,0.654,1.126,0.972 c-2.359,0.411-4.689,0.983-6.969,1.714C7.582,68.775,3.634,70.61,0,72.945c8.85,9.963,23.134,14.771,36.208,12.186 c3.524-0.697,7.002-1.919,9.887-4.057c0.073-0.054,0.145-0.111,0.218-0.167c-0.987,5.662-2.714,11.136-5.104,16.221l7.509,2.806 c1.698-5.797,2.631-11.748,2.814-17.669c0.107,0.076,0.215,0.152,0.324,0.225c3.142,2.114,6.863,3.232,10.607,3.796 C76.352,88.379,91.161,82.628,100,71.71C96.061,69.427,91.816,67.684,87.422,66.495z" fill="#ff9f32" transform="scale(0.9500385111186949)"></path>
</g><g transform="translate(569.6516554945356 -100) rotate(0)">
  <animateTransform attributeName="transform" type="translate" keyTimes="0;1" values="569.6516554945356 -100;1596.5455183010533 864" dur="25s" repeatCount="indefinite" begin="-2.3035776768454252s"></animateTransform>
  <animateTransform attributeName="transform" type="rotate" keyTimes="0;1" begin="-2.3035776768454252s" values="0 50 50;362.995845777954 50 50" dur="25s" repeatCount="indefinite" additive="sum"></animateTransform>
  <path d="M87.422,66.495c-2.009-0.544-4.049-0.97-6.107-1.283c10.617-11.116,15.747-27.37,13.129-42.549 c-5.236,1.77-10.223,4.252-14.824,7.313c-4.13,2.747-7.948,5.961-11.374,9.55C67.425,24.863,61.344,10.451,50.991,0 c-4.015,5.451-7.281,11.444-9.753,17.744c-3.579,9.122-5.501,18.893-5.669,28.691c-4.79-7.979-11.256-14.955-18.858-20.322 c-4.514-3.187-9.431-5.806-14.616-7.72c-3.361,16.717,2.731,35.015,15.445,46.379c0.369,0.33,0.745,0.654,1.126,0.972 c-2.359,0.411-4.689,0.983-6.969,1.714C7.582,68.775,3.634,70.61,0,72.945c8.85,9.963,23.134,14.771,36.208,12.186 c3.524-0.697,7.002-1.919,9.887-4.057c0.073-0.054,0.145-0.111,0.218-0.167c-0.987,5.662-2.714,11.136-5.104,16.221l7.509,2.806 c1.698-5.797,2.631-11.748,2.814-17.669c0.107,0.076,0.215,0.152,0.324,0.225c3.142,2.114,6.863,3.232,10.607,3.796 C76.352,88.379,91.161,82.628,100,71.71C96.061,69.427,91.816,67.684,87.422,66.495z" fill="#ff956e" transform="scale(0.7911907456715122)"></path>
</g><g transform="translate(-100 45.11611719231091) rotate(0)">
  <animateTransform attributeName="transform" type="translate" keyTimes="0;1" values="-100 45.11611719231091;929.8660985587019 864" dur="25s" repeatCount="indefinite" begin="-8.597992946422417s"></animateTransform>
  <animateTransform attributeName="transform" type="rotate" keyTimes="0;1" begin="-8.597992946422417s" values="0 50 50;598.8765329511012 50 50" dur="25s" repeatCount="indefinite" additive="sum"></animateTransform>
  <path d="M87.422,66.495c-2.009-0.544-4.049-0.97-6.107-1.283c10.617-11.116,15.747-27.37,13.129-42.549 c-5.236,1.77-10.223,4.252-14.824,7.313c-4.13,2.747-7.948,5.961-11.374,9.55C67.425,24.863,61.344,10.451,50.991,0 c-4.015,5.451-7.281,11.444-9.753,17.744c-3.579,9.122-5.501,18.893-5.669,28.691c-4.79-7.979-11.256-14.955-18.858-20.322 c-4.514-3.187-9.431-5.806-14.616-7.72c-3.361,16.717,2.731,35.015,15.445,46.379c0.369,0.33,0.745,0.654,1.126,0.972 c-2.359,0.411-4.689,0.983-6.969,1.714C7.582,68.775,3.634,70.61,0,72.945c8.85,9.963,23.134,14.771,36.208,12.186 c3.524-0.697,7.002-1.919,9.887-4.057c0.073-0.054,0.145-0.111,0.218-0.167c-0.987,5.662-2.714,11.136-5.104,16.221l7.509,2.806 c1.698-5.797,2.631-11.748,2.814-17.669c0.107,0.076,0.215,0.152,0.324,0.225c3.142,2.114,6.863,3.232,10.607,3.796 C76.352,88.379,91.161,82.628,100,71.71C96.061,69.427,91.816,67.684,87.422,66.495z" fill="#ff9f32" transform="scale(1.0163897868781056)"></path>
</g><g transform="translate(-100 36.449405583969046) rotate(0)">
  <animateTransform attributeName="transform" type="translate" keyTimes="0;1" values="-100 36.449405583969046;1139.7219815607068 864" dur="25s" repeatCount="indefinite" begin="-8.798454330505596s"></animateTransform>
  <animateTransform attributeName="transform" type="rotate" keyTimes="0;1" begin="-8.798454330505596s" values="0 50 50;244.15238944156602 50 50" dur="25s" repeatCount="indefinite" additive="sum"></animateTransform>
  <path d="M87.422,66.495c-2.009-0.544-4.049-0.97-6.107-1.283c10.617-11.116,15.747-27.37,13.129-42.549 c-5.236,1.77-10.223,4.252-14.824,7.313c-4.13,2.747-7.948,5.961-11.374,9.55C67.425,24.863,61.344,10.451,50.991,0 c-4.015,5.451-7.281,11.444-9.753,17.744c-3.579,9.122-5.501,18.893-5.669,28.691c-4.79-7.979-11.256-14.955-18.858-20.322 c-4.514-3.187-9.431-5.806-14.616-7.72c-3.361,16.717,2.731,35.015,15.445,46.379c0.369,0.33,0.745,0.654,1.126,0.972 c-2.359,0.411-4.689,0.983-6.969,1.714C7.582,68.775,3.634,70.61,0,72.945c8.85,9.963,23.134,14.771,36.208,12.186 c3.524-0.697,7.002-1.919,9.887-4.057c0.073-0.054,0.145-0.111,0.218-0.167c-0.987,5.662-2.714,11.136-5.104,16.221l7.509,2.806 c1.698-5.797,2.631-11.748,2.814-17.669c0.107,0.076,0.215,0.152,0.324,0.225c3.142,2.114,6.863,3.232,10.607,3.796 C76.352,88.379,91.161,82.628,100,71.71C96.061,69.427,91.816,67.684,87.422,66.495z" fill="#ff956e" transform="scale(0.6733196949368686)"></path>
</g><g transform="translate(103.76864361969069 -100) rotate(0)">
  <animateTransform attributeName="transform" type="translate" keyTimes="0;1" values="103.76864361969069 -100;1047.898397246678 864" dur="25s" repeatCount="indefinite" begin="-3.412962273799214s"></animateTransform>
  <animateTransform attributeName="transform" type="rotate" keyTimes="0;1" begin="-3.412962273799214s" values="0 50 50;429.72753236008447 50 50" dur="25s" repeatCount="indefinite" additive="sum"></animateTransform>
  <path d="M87.422,66.495c-2.009-0.544-4.049-0.97-6.107-1.283c10.617-11.116,15.747-27.37,13.129-42.549 c-5.236,1.77-10.223,4.252-14.824,7.313c-4.13,2.747-7.948,5.961-11.374,9.55C67.425,24.863,61.344,10.451,50.991,0 c-4.015,5.451-7.281,11.444-9.753,17.744c-3.579,9.122-5.501,18.893-5.669,28.691c-4.79-7.979-11.256-14.955-18.858-20.322 c-4.514-3.187-9.431-5.806-14.616-7.72c-3.361,16.717,2.731,35.015,15.445,46.379c0.369,0.33,0.745,0.654,1.126,0.972 c-2.359,0.411-4.689,0.983-6.969,1.714C7.582,68.775,3.634,70.61,0,72.945c8.85,9.963,23.134,14.771,36.208,12.186 c3.524-0.697,7.002-1.919,9.887-4.057c0.073-0.054,0.145-0.111,0.218-0.167c-0.987,5.662-2.714,11.136-5.104,16.221l7.509,2.806 c1.698-5.797,2.631-11.748,2.814-17.669c0.107,0.076,0.215,0.152,0.324,0.225c3.142,2.114,6.863,3.232,10.607,3.796 C76.352,88.379,91.161,82.628,100,71.71C96.061,69.427,91.816,67.684,87.422,66.495z" fill="#ff9f32" transform="scale(0.9825670848126541)"></path>
</g><g transform="translate(208.25136953076586 -100) rotate(0)">
  <animateTransform attributeName="transform" type="translate" keyTimes="0;1" values="208.25136953076586 -100;935.7930101125021 864" dur="25s" repeatCount="indefinite" begin="-18.343016726395405s"></animateTransform>
  <animateTransform attributeName="transform" type="rotate" keyTimes="0;1" begin="-18.343016726395405s" values="0 50 50;145.79845874928975 50 50" dur="25s" repeatCount="indefinite" additive="sum"></animateTransform>
  <path d="M87.422,66.495c-2.009-0.544-4.049-0.97-6.107-1.283c10.617-11.116,15.747-27.37,13.129-42.549 c-5.236,1.77-10.223,4.252-14.824,7.313c-4.13,2.747-7.948,5.961-11.374,9.55C67.425,24.863,61.344,10.451,50.991,0 c-4.015,5.451-7.281,11.444-9.753,17.744c-3.579,9.122-5.501,18.893-5.669,28.691c-4.79-7.979-11.256-14.955-18.858-20.322 c-4.514-3.187-9.431-5.806-14.616-7.72c-3.361,16.717,2.731,35.015,15.445,46.379c0.369,0.33,0.745,0.654,1.126,0.972 c-2.359,0.411-4.689,0.983-6.969,1.714C7.582,68.775,3.634,70.61,0,72.945c8.85,9.963,23.134,14.771,36.208,12.186 c3.524-0.697,7.002-1.919,9.887-4.057c0.073-0.054,0.145-0.111,0.218-0.167c-0.987,5.662-2.714,11.136-5.104,16.221l7.509,2.806 c1.698-5.797,2.631-11.748,2.814-17.669c0.107,0.076,0.215,0.152,0.324,0.225c3.142,2.114,6.863,3.232,10.607,3.796 C76.352,88.379,91.161,82.628,100,71.71C96.061,69.427,91.816,67.684,87.422,66.495z" fill="#ffc46c" transform="scale(1.1400308500076402)"></path>
</g><g transform="translate(-100 364.9371982290646) rotate(0)">
  <animateTransform attributeName="transform" type="translate" keyTimes="0;1" values="-100 364.9371982290646;1240 1393.685452983956" dur="25s" repeatCount="indefinite" begin="-18.70795501059935s"></animateTransform>
  <animateTransform attributeName="transform" type="rotate" keyTimes="0;1" begin="-18.70795501059935s" values="0 50 50;964.4949082435015 50 50" dur="25s" repeatCount="indefinite" additive="sum"></animateTransform>
  <path d="M87.422,66.495c-2.009-0.544-4.049-0.97-6.107-1.283c10.617-11.116,15.747-27.37,13.129-42.549 c-5.236,1.77-10.223,4.252-14.824,7.313c-4.13,2.747-7.948,5.961-11.374,9.55C67.425,24.863,61.344,10.451,50.991,0 c-4.015,5.451-7.281,11.444-9.753,17.744c-3.579,9.122-5.501,18.893-5.669,28.691c-4.79-7.979-11.256-14.955-18.858-20.322 c-4.514-3.187-9.431-5.806-14.616-7.72c-3.361,16.717,2.731,35.015,15.445,46.379c0.369,0.33,0.745,0.654,1.126,0.972 c-2.359,0.411-4.689,0.983-6.969,1.714C7.582,68.775,3.634,70.61,0,72.945c8.85,9.963,23.134,14.771,36.208,12.186 c3.524-0.697,7.002-1.919,9.887-4.057c0.073-0.054,0.145-0.111,0.218-0.167c-0.987,5.662-2.714,11.136-5.104,16.221l7.509,2.806 c1.698-5.797,2.631-11.748,2.814-17.669c0.107,0.076,0.215,0.152,0.324,0.225c3.142,2.114,6.863,3.232,10.607,3.796 C76.352,88.379,91.161,82.628,100,71.71C96.061,69.427,91.816,67.684,87.422,66.495z" fill="#ff956e" transform="scale(0.9415276245051342)"></path>
</g><g transform="translate(477.1765410641482 -100) rotate(0)">
  <animateTransform attributeName="transform" type="translate" keyTimes="0;1" values="477.1765410641482 -100;1919.3824512912138 864" dur="25s" repeatCount="indefinite" begin="-11.168370178036552s"></animateTransform>
  <animateTransform attributeName="transform" type="rotate" keyTimes="0;1" begin="-11.168370178036552s" values="0 50 50;50.82630889929786 50 50" dur="25s" repeatCount="indefinite" additive="sum"></animateTransform>
  <path d="M87.422,66.495c-2.009-0.544-4.049-0.97-6.107-1.283c10.617-11.116,15.747-27.37,13.129-42.549 c-5.236,1.77-10.223,4.252-14.824,7.313c-4.13,2.747-7.948,5.961-11.374,9.55C67.425,24.863,61.344,10.451,50.991,0 c-4.015,5.451-7.281,11.444-9.753,17.744c-3.579,9.122-5.501,18.893-5.669,28.691c-4.79-7.979-11.256-14.955-18.858-20.322 c-4.514-3.187-9.431-5.806-14.616-7.72c-3.361,16.717,2.731,35.015,15.445,46.379c0.369,0.33,0.745,0.654,1.126,0.972 c-2.359,0.411-4.689,0.983-6.969,1.714C7.582,68.775,3.634,70.61,0,72.945c8.85,9.963,23.134,14.771,36.208,12.186 c3.524-0.697,7.002-1.919,9.887-4.057c0.073-0.054,0.145-0.111,0.218-0.167c-0.987,5.662-2.714,11.136-5.104,16.221l7.509,2.806 c1.698-5.797,2.631-11.748,2.814-17.669c0.107,0.076,0.215,0.152,0.324,0.225c3.142,2.114,6.863,3.232,10.607,3.796 C76.352,88.379,91.161,82.628,100,71.71C96.061,69.427,91.816,67.684,87.422,66.495z" fill="#ffc46c" transform="scale(0.9456351114145118)"></path>
</g><g transform="translate(808.0909464783351 -100) rotate(0)">
  <animateTransform attributeName="transform" type="translate" keyTimes="0;1" values="808.0909464783351 -100;2472.027030377881 864" dur="25s" repeatCount="indefinite" begin="-4.772491357201419s"></animateTransform>
  <animateTransform attributeName="transform" type="rotate" keyTimes="0;1" begin="-4.772491357201419s" values="0 50 50;406.05759662177644 50 50" dur="25s" repeatCount="indefinite" additive="sum"></animateTransform>
  <path d="M87.422,66.495c-2.009-0.544-4.049-0.97-6.107-1.283c10.617-11.116,15.747-27.37,13.129-42.549 c-5.236,1.77-10.223,4.252-14.824,7.313c-4.13,2.747-7.948,5.961-11.374,9.55C67.425,24.863,61.344,10.451,50.991,0 c-4.015,5.451-7.281,11.444-9.753,17.744c-3.579,9.122-5.501,18.893-5.669,28.691c-4.79-7.979-11.256-14.955-18.858-20.322 c-4.514-3.187-9.431-5.806-14.616-7.72c-3.361,16.717,2.731,35.015,15.445,46.379c0.369,0.33,0.745,0.654,1.126,0.972 c-2.359,0.411-4.689,0.983-6.969,1.714C7.582,68.775,3.634,70.61,0,72.945c8.85,9.963,23.134,14.771,36.208,12.186 c3.524-0.697,7.002-1.919,9.887-4.057c0.073-0.054,0.145-0.111,0.218-0.167c-0.987,5.662-2.714,11.136-5.104,16.221l7.509,2.806 c1.698-5.797,2.631-11.748,2.814-17.669c0.107,0.076,0.215,0.152,0.324,0.225c3.142,2.114,6.863,3.232,10.607,3.796 C76.352,88.379,91.161,82.628,100,71.71C96.061,69.427,91.816,67.684,87.422,66.495z" fill="#ff956e" transform="scale(0.7059869761040527)"></path>
</g><g transform="translate(758.262065047428 -100) rotate(0)">
  <animateTransform attributeName="transform" type="translate" keyTimes="0;1" values="758.262065047428 -100;1765.573404715812 864" dur="25s" repeatCount="indefinite" begin="-4.932639933413557s"></animateTransform>
  <animateTransform attributeName="transform" type="rotate" keyTimes="0;1" begin="-4.932639933413557s" values="0 50 50;629.2210164002681 50 50" dur="25s" repeatCount="indefinite" additive="sum"></animateTransform>
  <path d="M87.422,66.495c-2.009-0.544-4.049-0.97-6.107-1.283c10.617-11.116,15.747-27.37,13.129-42.549 c-5.236,1.77-10.223,4.252-14.824,7.313c-4.13,2.747-7.948,5.961-11.374,9.55C67.425,24.863,61.344,10.451,50.991,0 c-4.015,5.451-7.281,11.444-9.753,17.744c-3.579,9.122-5.501,18.893-5.669,28.691c-4.79-7.979-11.256-14.955-18.858-20.322 c-4.514-3.187-9.431-5.806-14.616-7.72c-3.361,16.717,2.731,35.015,15.445,46.379c0.369,0.33,0.745,0.654,1.126,0.972 c-2.359,0.411-4.689,0.983-6.969,1.714C7.582,68.775,3.634,70.61,0,72.945c8.85,9.963,23.134,14.771,36.208,12.186 c3.524-0.697,7.002-1.919,9.887-4.057c0.073-0.054,0.145-0.111,0.218-0.167c-0.987,5.662-2.714,11.136-5.104,16.221l7.509,2.806 c1.698-5.797,2.631-11.748,2.814-17.669c0.107,0.076,0.215,0.152,0.324,0.225c3.142,2.114,6.863,3.232,10.607,3.796 C76.352,88.379,91.161,82.628,100,71.71C96.061,69.427,91.816,67.684,87.422,66.495z" fill="#ff956e" transform="scale(1.4586392903107455)"></path>
</g><g transform="translate(-100 260.7449711542516) rotate(0)">
  <animateTransform attributeName="transform" type="translate" keyTimes="0;1" values="-100 260.7449711542516;1240 877.2303280568751" dur="25s" repeatCount="indefinite" begin="-5.573682400726426s"></animateTransform>
  <animateTransform attributeName="transform" type="rotate" keyTimes="0;1" begin="-5.573682400726426s" values="0 50 50;631.2196616736802 50 50" dur="25s" repeatCount="indefinite" additive="sum"></animateTransform>
  <path d="M87.422,66.495c-2.009-0.544-4.049-0.97-6.107-1.283c10.617-11.116,15.747-27.37,13.129-42.549 c-5.236,1.77-10.223,4.252-14.824,7.313c-4.13,2.747-7.948,5.961-11.374,9.55C67.425,24.863,61.344,10.451,50.991,0 c-4.015,5.451-7.281,11.444-9.753,17.744c-3.579,9.122-5.501,18.893-5.669,28.691c-4.79-7.979-11.256-14.955-18.858-20.322 c-4.514-3.187-9.431-5.806-14.616-7.72c-3.361,16.717,2.731,35.015,15.445,46.379c0.369,0.33,0.745,0.654,1.126,0.972 c-2.359,0.411-4.689,0.983-6.969,1.714C7.582,68.775,3.634,70.61,0,72.945c8.85,9.963,23.134,14.771,36.208,12.186 c3.524-0.697,7.002-1.919,9.887-4.057c0.073-0.054,0.145-0.111,0.218-0.167c-0.987,5.662-2.714,11.136-5.104,16.221l7.509,2.806 c1.698-5.797,2.631-11.748,2.814-17.669c0.107,0.076,0.215,0.152,0.324,0.225c3.142,2.114,6.863,3.232,10.607,3.796 C76.352,88.379,91.161,82.628,100,71.71C96.061,69.427,91.816,67.684,87.422,66.495z" fill="#ffc46c" transform="scale(1.3891125105796869)"></path>
</g><g transform="translate(-100 234.00921410155334) rotate(0)">
  <animateTransform attributeName="transform" type="translate" keyTimes="0;1" values="-100 234.00921410155334;1240 849.5182484328445" dur="25s" repeatCount="indefinite" begin="-2.410916961566328s"></animateTransform>
  <animateTransform attributeName="transform" type="rotate" keyTimes="0;1" begin="-2.410916961566328s" values="0 50 50;1051.1820234496786 50 50" dur="25s" repeatCount="indefinite" additive="sum"></animateTransform>
  <path d="M87.422,66.495c-2.009-0.544-4.049-0.97-6.107-1.283c10.617-11.116,15.747-27.37,13.129-42.549 c-5.236,1.77-10.223,4.252-14.824,7.313c-4.13,2.747-7.948,5.961-11.374,9.55C67.425,24.863,61.344,10.451,50.991,0 c-4.015,5.451-7.281,11.444-9.753,17.744c-3.579,9.122-5.501,18.893-5.669,28.691c-4.79-7.979-11.256-14.955-18.858-20.322 c-4.514-3.187-9.431-5.806-14.616-7.72c-3.361,16.717,2.731,35.015,15.445,46.379c0.369,0.33,0.745,0.654,1.126,0.972 c-2.359,0.411-4.689,0.983-6.969,1.714C7.582,68.775,3.634,70.61,0,72.945c8.85,9.963,23.134,14.771,36.208,12.186 c3.524-0.697,7.002-1.919,9.887-4.057c0.073-0.054,0.145-0.111,0.218-0.167c-0.987,5.662-2.714,11.136-5.104,16.221l7.509,2.806 c1.698-5.797,2.631-11.748,2.814-17.669c0.107,0.076,0.215,0.152,0.324,0.225c3.142,2.114,6.863,3.232,10.607,3.796 C76.352,88.379,91.161,82.628,100,71.71C96.061,69.427,91.816,67.684,87.422,66.495z" fill="#ffc46c" transform="scale(1.2084363984643531)"></path>
</g><g transform="translate(608.7679737060116 -100) rotate(0)">
  <animateTransform attributeName="transform" type="translate" keyTimes="0;1" values="608.7679737060116 -100;2299.6498818472787 864" dur="25s" repeatCount="indefinite" begin="-7.84894563254544s"></animateTransform>
  <animateTransform attributeName="transform" type="rotate" keyTimes="0;1" begin="-7.84894563254544s" values="0 50 50;206.11643787739303 50 50" dur="25s" repeatCount="indefinite" additive="sum"></animateTransform>
  <path d="M87.422,66.495c-2.009-0.544-4.049-0.97-6.107-1.283c10.617-11.116,15.747-27.37,13.129-42.549 c-5.236,1.77-10.223,4.252-14.824,7.313c-4.13,2.747-7.948,5.961-11.374,9.55C67.425,24.863,61.344,10.451,50.991,0 c-4.015,5.451-7.281,11.444-9.753,17.744c-3.579,9.122-5.501,18.893-5.669,28.691c-4.79-7.979-11.256-14.955-18.858-20.322 c-4.514-3.187-9.431-5.806-14.616-7.72c-3.361,16.717,2.731,35.015,15.445,46.379c0.369,0.33,0.745,0.654,1.126,0.972 c-2.359,0.411-4.689,0.983-6.969,1.714C7.582,68.775,3.634,70.61,0,72.945c8.85,9.963,23.134,14.771,36.208,12.186 c3.524-0.697,7.002-1.919,9.887-4.057c0.073-0.054,0.145-0.111,0.218-0.167c-0.987,5.662-2.714,11.136-5.104,16.221l7.509,2.806 c1.698-5.797,2.631-11.748,2.814-17.669c0.107,0.076,0.215,0.152,0.324,0.225c3.142,2.114,6.863,3.232,10.607,3.796 C76.352,88.379,91.161,82.628,100,71.71C96.061,69.427,91.816,67.684,87.422,66.495z" fill="#ffc46c" transform="scale(1.0982216720634284)"></path>
</g><g transform="translate(537.8301747014781 -100) rotate(0)">
  <animateTransform attributeName="transform" type="translate" keyTimes="0;1" values="537.8301747014781 -100;1160.574436171154 864" dur="25s" repeatCount="indefinite" begin="-16.772848010515467s"></animateTransform>
  <animateTransform attributeName="transform" type="rotate" keyTimes="0;1" begin="-16.772848010515467s" values="0 50 50;471.7829913225936 50 50" dur="25s" repeatCount="indefinite" additive="sum"></animateTransform>
  <path d="M87.422,66.495c-2.009-0.544-4.049-0.97-6.107-1.283c10.617-11.116,15.747-27.37,13.129-42.549 c-5.236,1.77-10.223,4.252-14.824,7.313c-4.13,2.747-7.948,5.961-11.374,9.55C67.425,24.863,61.344,10.451,50.991,0 c-4.015,5.451-7.281,11.444-9.753,17.744c-3.579,9.122-5.501,18.893-5.669,28.691c-4.79-7.979-11.256-14.955-18.858-20.322 c-4.514-3.187-9.431-5.806-14.616-7.72c-3.361,16.717,2.731,35.015,15.445,46.379c0.369,0.33,0.745,0.654,1.126,0.972 c-2.359,0.411-4.689,0.983-6.969,1.714C7.582,68.775,3.634,70.61,0,72.945c8.85,9.963,23.134,14.771,36.208,12.186 c3.524-0.697,7.002-1.919,9.887-4.057c0.073-0.054,0.145-0.111,0.218-0.167c-0.987,5.662-2.714,11.136-5.104,16.221l7.509,2.806 c1.698-5.797,2.631-11.748,2.814-17.669c0.107,0.076,0.215,0.152,0.324,0.225c3.142,2.114,6.863,3.232,10.607,3.796 C76.352,88.379,91.161,82.628,100,71.71C96.061,69.427,91.816,67.684,87.422,66.495z" fill="#ff956e" transform="scale(0.7881137746841029)"></path>
</g><g transform="translate(840.8407070260905 -100) rotate(0)">
  <animateTransform attributeName="transform" type="translate" keyTimes="0;1" values="840.8407070260905 -100;1240 783.2475282189919" dur="25s" repeatCount="indefinite" begin="-18.874153151360716s"></animateTransform>
  <animateTransform attributeName="transform" type="rotate" keyTimes="0;1" begin="-18.874153151360716s" values="0 50 50;519.3586016040634 50 50" dur="25s" repeatCount="indefinite" additive="sum"></animateTransform>
  <path d="M87.422,66.495c-2.009-0.544-4.049-0.97-6.107-1.283c10.617-11.116,15.747-27.37,13.129-42.549 c-5.236,1.77-10.223,4.252-14.824,7.313c-4.13,2.747-7.948,5.961-11.374,9.55C67.425,24.863,61.344,10.451,50.991,0 c-4.015,5.451-7.281,11.444-9.753,17.744c-3.579,9.122-5.501,18.893-5.669,28.691c-4.79-7.979-11.256-14.955-18.858-20.322 c-4.514-3.187-9.431-5.806-14.616-7.72c-3.361,16.717,2.731,35.015,15.445,46.379c0.369,0.33,0.745,0.654,1.126,0.972 c-2.359,0.411-4.689,0.983-6.969,1.714C7.582,68.775,3.634,70.61,0,72.945c8.85,9.963,23.134,14.771,36.208,12.186 c3.524-0.697,7.002-1.919,9.887-4.057c0.073-0.054,0.145-0.111,0.218-0.167c-0.987,5.662-2.714,11.136-5.104,16.221l7.509,2.806 c1.698-5.797,2.631-11.748,2.814-17.669c0.107,0.076,0.215,0.152,0.324,0.225c3.142,2.114,6.863,3.232,10.607,3.796 C76.352,88.379,91.161,82.628,100,71.71C96.061,69.427,91.816,67.684,87.422,66.495z" fill="#f86161" transform="scale(0.9629428546475167)"></path>
</g><g transform="translate(-100 330.15966256996154) rotate(0)">
  <animateTransform attributeName="transform" type="translate" keyTimes="0;1" values="-100 330.15966256996154;1240 993.7673127221888" dur="25s" repeatCount="indefinite" begin="-19.502741443285192s"></animateTransform>
  <animateTransform attributeName="transform" type="rotate" keyTimes="0;1" begin="-19.502741443285192s" values="0 50 50;824.8413941960198 50 50" dur="25s" repeatCount="indefinite" additive="sum"></animateTransform>
  <path d="M87.422,66.495c-2.009-0.544-4.049-0.97-6.107-1.283c10.617-11.116,15.747-27.37,13.129-42.549 c-5.236,1.77-10.223,4.252-14.824,7.313c-4.13,2.747-7.948,5.961-11.374,9.55C67.425,24.863,61.344,10.451,50.991,0 c-4.015,5.451-7.281,11.444-9.753,17.744c-3.579,9.122-5.501,18.893-5.669,28.691c-4.79-7.979-11.256-14.955-18.858-20.322 c-4.514-3.187-9.431-5.806-14.616-7.72c-3.361,16.717,2.731,35.015,15.445,46.379c0.369,0.33,0.745,0.654,1.126,0.972 c-2.359,0.411-4.689,0.983-6.969,1.714C7.582,68.775,3.634,70.61,0,72.945c8.85,9.963,23.134,14.771,36.208,12.186 c3.524-0.697,7.002-1.919,9.887-4.057c0.073-0.054,0.145-0.111,0.218-0.167c-0.987,5.662-2.714,11.136-5.104,16.221l7.509,2.806 c1.698-5.797,2.631-11.748,2.814-17.669c0.107,0.076,0.215,0.152,0.324,0.225c3.142,2.114,6.863,3.232,10.607,3.796 C76.352,88.379,91.161,82.628,100,71.71C96.061,69.427,91.816,67.684,87.422,66.495z" fill="#ffc46c" transform="scale(0.7478940102158936)"></path>
</g><g transform="translate(1034.0884236241038 -100) rotate(0)">
  <animateTransform attributeName="transform" type="translate" keyTimes="0;1" values="1034.0884236241038 -100;2666.8265344027122 864" dur="25s" repeatCount="indefinite" begin="-1.2016425400728448s"></animateTransform>
  <animateTransform attributeName="transform" type="rotate" keyTimes="0;1" begin="-1.2016425400728448s" values="0 50 50;839.3205846848098 50 50" dur="25s" repeatCount="indefinite" additive="sum"></animateTransform>
  <path d="M87.422,66.495c-2.009-0.544-4.049-0.97-6.107-1.283c10.617-11.116,15.747-27.37,13.129-42.549 c-5.236,1.77-10.223,4.252-14.824,7.313c-4.13,2.747-7.948,5.961-11.374,9.55C67.425,24.863,61.344,10.451,50.991,0 c-4.015,5.451-7.281,11.444-9.753,17.744c-3.579,9.122-5.501,18.893-5.669,28.691c-4.79-7.979-11.256-14.955-18.858-20.322 c-4.514-3.187-9.431-5.806-14.616-7.72c-3.361,16.717,2.731,35.015,15.445,46.379c0.369,0.33,0.745,0.654,1.126,0.972 c-2.359,0.411-4.689,0.983-6.969,1.714C7.582,68.775,3.634,70.61,0,72.945c8.85,9.963,23.134,14.771,36.208,12.186 c3.524-0.697,7.002-1.919,9.887-4.057c0.073-0.054,0.145-0.111,0.218-0.167c-0.987,5.662-2.714,11.136-5.104,16.221l7.509,2.806 c1.698-5.797,2.631-11.748,2.814-17.669c0.107,0.076,0.215,0.152,0.324,0.225c3.142,2.114,6.863,3.232,10.607,3.796 C76.352,88.379,91.161,82.628,100,71.71C96.061,69.427,91.816,67.684,87.422,66.495z" fill="#ff956e" transform="scale(1.2049224824784452)"></path>
</g><g transform="translate(682.6404560062288 -100) rotate(0)">
  <animateTransform attributeName="transform" type="translate" keyTimes="0;1" values="682.6404560062288 -100;1726.413307554928 864" dur="25s" repeatCount="indefinite" begin="-5.122847795081597s"></animateTransform>
  <animateTransform attributeName="transform" type="rotate" keyTimes="0;1" begin="-5.122847795081597s" values="0 50 50;113.9683240884828 50 50" dur="25s" repeatCount="indefinite" additive="sum"></animateTransform>
  <path d="M87.422,66.495c-2.009-0.544-4.049-0.97-6.107-1.283c10.617-11.116,15.747-27.37,13.129-42.549 c-5.236,1.77-10.223,4.252-14.824,7.313c-4.13,2.747-7.948,5.961-11.374,9.55C67.425,24.863,61.344,10.451,50.991,0 c-4.015,5.451-7.281,11.444-9.753,17.744c-3.579,9.122-5.501,18.893-5.669,28.691c-4.79-7.979-11.256-14.955-18.858-20.322 c-4.514-3.187-9.431-5.806-14.616-7.72c-3.361,16.717,2.731,35.015,15.445,46.379c0.369,0.33,0.745,0.654,1.126,0.972 c-2.359,0.411-4.689,0.983-6.969,1.714C7.582,68.775,3.634,70.61,0,72.945c8.85,9.963,23.134,14.771,36.208,12.186 c3.524-0.697,7.002-1.919,9.887-4.057c0.073-0.054,0.145-0.111,0.218-0.167c-0.987,5.662-2.714,11.136-5.104,16.221l7.509,2.806 c1.698-5.797,2.631-11.748,2.814-17.669c0.107,0.076,0.215,0.152,0.324,0.225c3.142,2.114,6.863,3.232,10.607,3.796 C76.352,88.379,91.161,82.628,100,71.71C96.061,69.427,91.816,67.684,87.422,66.495z" fill="#ffc46c" transform="scale(0.9545339702611181)"></path>
</g><g transform="translate(-100 25.998172492967296) rotate(0)">
  <animateTransform attributeName="transform" type="translate" keyTimes="0;1" values="-100 25.998172492967296;1471.3564142097991 864" dur="25s" repeatCount="indefinite" begin="-22.703842730430118s"></animateTransform>
  <animateTransform attributeName="transform" type="rotate" keyTimes="0;1" begin="-22.703842730430118s" values="0 50 50;666.7090697110565 50 50" dur="25s" repeatCount="indefinite" additive="sum"></animateTransform>
  <path d="M87.422,66.495c-2.009-0.544-4.049-0.97-6.107-1.283c10.617-11.116,15.747-27.37,13.129-42.549 c-5.236,1.77-10.223,4.252-14.824,7.313c-4.13,2.747-7.948,5.961-11.374,9.55C67.425,24.863,61.344,10.451,50.991,0 c-4.015,5.451-7.281,11.444-9.753,17.744c-3.579,9.122-5.501,18.893-5.669,28.691c-4.79-7.979-11.256-14.955-18.858-20.322 c-4.514-3.187-9.431-5.806-14.616-7.72c-3.361,16.717,2.731,35.015,15.445,46.379c0.369,0.33,0.745,0.654,1.126,0.972 c-2.359,0.411-4.689,0.983-6.969,1.714C7.582,68.775,3.634,70.61,0,72.945c8.85,9.963,23.134,14.771,36.208,12.186 c3.524-0.697,7.002-1.919,9.887-4.057c0.073-0.054,0.145-0.111,0.218-0.167c-0.987,5.662-2.714,11.136-5.104,16.221l7.509,2.806 c1.698-5.797,2.631-11.748,2.814-17.669c0.107,0.076,0.215,0.152,0.324,0.225c3.142,2.114,6.863,3.232,10.607,3.796 C76.352,88.379,91.161,82.628,100,71.71C96.061,69.427,91.816,67.684,87.422,66.495z" fill="#ff9f32" transform="scale(0.7085338357335252)"></path>
</g><g transform="translate(549.4333462930582 -100) rotate(0)">
  <animateTransform attributeName="transform" type="translate" keyTimes="0;1" values="549.4333462930582 -100;1240 425.2833413519969" dur="25s" repeatCount="indefinite" begin="-9.040859601481731s"></animateTransform>
  <animateTransform attributeName="transform" type="rotate" keyTimes="0;1" begin="-9.040859601481731s" values="0 50 50;187.75658105945988 50 50" dur="25s" repeatCount="indefinite" additive="sum"></animateTransform>
  <path d="M87.422,66.495c-2.009-0.544-4.049-0.97-6.107-1.283c10.617-11.116,15.747-27.37,13.129-42.549 c-5.236,1.77-10.223,4.252-14.824,7.313c-4.13,2.747-7.948,5.961-11.374,9.55C67.425,24.863,61.344,10.451,50.991,0 c-4.015,5.451-7.281,11.444-9.753,17.744c-3.579,9.122-5.501,18.893-5.669,28.691c-4.79-7.979-11.256-14.955-18.858-20.322 c-4.514-3.187-9.431-5.806-14.616-7.72c-3.361,16.717,2.731,35.015,15.445,46.379c0.369,0.33,0.745,0.654,1.126,0.972 c-2.359,0.411-4.689,0.983-6.969,1.714C7.582,68.775,3.634,70.61,0,72.945c8.85,9.963,23.134,14.771,36.208,12.186 c3.524-0.697,7.002-1.919,9.887-4.057c0.073-0.054,0.145-0.111,0.218-0.167c-0.987,5.662-2.714,11.136-5.104,16.221l7.509,2.806 c1.698-5.797,2.631-11.748,2.814-17.669c0.107,0.076,0.215,0.152,0.324,0.225c3.142,2.114,6.863,3.232,10.607,3.796 C76.352,88.379,91.161,82.628,100,71.71C96.061,69.427,91.816,67.684,87.422,66.495z" fill="#ff956e" transform="scale(1.011579002022059)"></path>
</g><g transform="translate(-100 147.0399717872189) rotate(0)">
  <animateTransform attributeName="transform" type="translate" keyTimes="0;1" values="-100 147.0399717872189;1240 1222.6056587380815" dur="25s" repeatCount="indefinite" begin="-18.793993858946795s"></animateTransform>
  <animateTransform attributeName="transform" type="rotate" keyTimes="0;1" begin="-18.793993858946795s" values="0 50 50;562.7137349895763 50 50" dur="25s" repeatCount="indefinite" additive="sum"></animateTransform>
  <path d="M87.422,66.495c-2.009-0.544-4.049-0.97-6.107-1.283c10.617-11.116,15.747-27.37,13.129-42.549 c-5.236,1.77-10.223,4.252-14.824,7.313c-4.13,2.747-7.948,5.961-11.374,9.55C67.425,24.863,61.344,10.451,50.991,0 c-4.015,5.451-7.281,11.444-9.753,17.744c-3.579,9.122-5.501,18.893-5.669,28.691c-4.79-7.979-11.256-14.955-18.858-20.322 c-4.514-3.187-9.431-5.806-14.616-7.72c-3.361,16.717,2.731,35.015,15.445,46.379c0.369,0.33,0.745,0.654,1.126,0.972 c-2.359,0.411-4.689,0.983-6.969,1.714C7.582,68.775,3.634,70.61,0,72.945c8.85,9.963,23.134,14.771,36.208,12.186 c3.524-0.697,7.002-1.919,9.887-4.057c0.073-0.054,0.145-0.111,0.218-0.167c-0.987,5.662-2.714,11.136-5.104,16.221l7.509,2.806 c1.698-5.797,2.631-11.748,2.814-17.669c0.107,0.076,0.215,0.152,0.324,0.225c3.142,2.114,6.863,3.232,10.607,3.796 C76.352,88.379,91.161,82.628,100,71.71C96.061,69.427,91.816,67.684,87.422,66.495z" fill="#ff9f32" transform="scale(1.2328312746817496)"></path>
</g><g transform="translate(-100 203.74930253265796) rotate(0)">
  <animateTransform attributeName="transform" type="translate" keyTimes="0;1" values="-100 203.74930253265796;1240 1119.920591575573" dur="25s" repeatCount="indefinite" begin="-11.411220318056536s"></animateTransform>
  <animateTransform attributeName="transform" type="rotate" keyTimes="0;1" begin="-11.411220318056536s" values="0 50 50;801.8489336157185 50 50" dur="25s" repeatCount="indefinite" additive="sum"></animateTransform>
  <path d="M87.422,66.495c-2.009-0.544-4.049-0.97-6.107-1.283c10.617-11.116,15.747-27.37,13.129-42.549 c-5.236,1.77-10.223,4.252-14.824,7.313c-4.13,2.747-7.948,5.961-11.374,9.55C67.425,24.863,61.344,10.451,50.991,0 c-4.015,5.451-7.281,11.444-9.753,17.744c-3.579,9.122-5.501,18.893-5.669,28.691c-4.79-7.979-11.256-14.955-18.858-20.322 c-4.514-3.187-9.431-5.806-14.616-7.72c-3.361,16.717,2.731,35.015,15.445,46.379c0.369,0.33,0.745,0.654,1.126,0.972 c-2.359,0.411-4.689,0.983-6.969,1.714C7.582,68.775,3.634,70.61,0,72.945c8.85,9.963,23.134,14.771,36.208,12.186 c3.524-0.697,7.002-1.919,9.887-4.057c0.073-0.054,0.145-0.111,0.218-0.167c-0.987,5.662-2.714,11.136-5.104,16.221l7.509,2.806 c1.698-5.797,2.631-11.748,2.814-17.669c0.107,0.076,0.215,0.152,0.324,0.225c3.142,2.114,6.863,3.232,10.607,3.796 C76.352,88.379,91.161,82.628,100,71.71C96.061,69.427,91.816,67.684,87.422,66.495z" fill="#f86161" transform="scale(1.4426865688823987)"></path>
</g><g transform="translate(-100 194.71049317619332) rotate(0)">
  <animateTransform attributeName="transform" type="translate" keyTimes="0;1" values="-100 194.71049317619332;525.0898002475027 864" dur="25s" repeatCount="indefinite" begin="-11.245757038550297s"></animateTransform>
  <animateTransform attributeName="transform" type="rotate" keyTimes="0;1" begin="-11.245757038550297s" values="0 50 50;1064.162770743689 50 50" dur="25s" repeatCount="indefinite" additive="sum"></animateTransform>
  <path d="M87.422,66.495c-2.009-0.544-4.049-0.97-6.107-1.283c10.617-11.116,15.747-27.37,13.129-42.549 c-5.236,1.77-10.223,4.252-14.824,7.313c-4.13,2.747-7.948,5.961-11.374,9.55C67.425,24.863,61.344,10.451,50.991,0 c-4.015,5.451-7.281,11.444-9.753,17.744c-3.579,9.122-5.501,18.893-5.669,28.691c-4.79-7.979-11.256-14.955-18.858-20.322 c-4.514-3.187-9.431-5.806-14.616-7.72c-3.361,16.717,2.731,35.015,15.445,46.379c0.369,0.33,0.745,0.654,1.126,0.972 c-2.359,0.411-4.689,0.983-6.969,1.714C7.582,68.775,3.634,70.61,0,72.945c8.85,9.963,23.134,14.771,36.208,12.186 c3.524-0.697,7.002-1.919,9.887-4.057c0.073-0.054,0.145-0.111,0.218-0.167c-0.987,5.662-2.714,11.136-5.104,16.221l7.509,2.806 c1.698-5.797,2.631-11.748,2.814-17.669c0.107,0.076,0.215,0.152,0.324,0.225c3.142,2.114,6.863,3.232,10.607,3.796 C76.352,88.379,91.161,82.628,100,71.71C96.061,69.427,91.816,67.684,87.422,66.495z" fill="#ff956e" transform="scale(1.027520104902051)"></path>
</g><g transform="translate(-100 340.1954006414633) rotate(0)">
  <animateTransform attributeName="transform" type="translate" keyTimes="0;1" values="-100 340.1954006414633;929.9520549842714 864" dur="25s" repeatCount="indefinite" begin="-2.5408584911620014s"></animateTransform>
  <animateTransform attributeName="transform" type="rotate" keyTimes="0;1" begin="-2.5408584911620014s" values="0 50 50;839.3216349768546 50 50" dur="25s" repeatCount="indefinite" additive="sum"></animateTransform>
  <path d="M87.422,66.495c-2.009-0.544-4.049-0.97-6.107-1.283c10.617-11.116,15.747-27.37,13.129-42.549 c-5.236,1.77-10.223,4.252-14.824,7.313c-4.13,2.747-7.948,5.961-11.374,9.55C67.425,24.863,61.344,10.451,50.991,0 c-4.015,5.451-7.281,11.444-9.753,17.744c-3.579,9.122-5.501,18.893-5.669,28.691c-4.79-7.979-11.256-14.955-18.858-20.322 c-4.514-3.187-9.431-5.806-14.616-7.72c-3.361,16.717,2.731,35.015,15.445,46.379c0.369,0.33,0.745,0.654,1.126,0.972 c-2.359,0.411-4.689,0.983-6.969,1.714C7.582,68.775,3.634,70.61,0,72.945c8.85,9.963,23.134,14.771,36.208,12.186 c3.524-0.697,7.002-1.919,9.887-4.057c0.073-0.054,0.145-0.111,0.218-0.167c-0.987,5.662-2.714,11.136-5.104,16.221l7.509,2.806 c1.698-5.797,2.631-11.748,2.814-17.669c0.107,0.076,0.215,0.152,0.324,0.225c3.142,2.114,6.863,3.232,10.607,3.796 C76.352,88.379,91.161,82.628,100,71.71C96.061,69.427,91.816,67.684,87.422,66.495z" fill="#f86161" transform="scale(1.0948571259913535)"></path>
</g><g transform="translate(335.99068629687514 -100) rotate(0)">
  <animateTransform attributeName="transform" type="translate" keyTimes="0;1" values="335.99068629687514 -100;1841.4690194959478 864" dur="25s" repeatCount="indefinite" begin="-0.5964441972280354s"></animateTransform>
  <animateTransform attributeName="transform" type="rotate" keyTimes="0;1" begin="-0.5964441972280354s" values="0 50 50;347.4491888349827 50 50" dur="25s" repeatCount="indefinite" additive="sum"></animateTransform>
  <path d="M87.422,66.495c-2.009-0.544-4.049-0.97-6.107-1.283c10.617-11.116,15.747-27.37,13.129-42.549 c-5.236,1.77-10.223,4.252-14.824,7.313c-4.13,2.747-7.948,5.961-11.374,9.55C67.425,24.863,61.344,10.451,50.991,0 c-4.015,5.451-7.281,11.444-9.753,17.744c-3.579,9.122-5.501,18.893-5.669,28.691c-4.79-7.979-11.256-14.955-18.858-20.322 c-4.514-3.187-9.431-5.806-14.616-7.72c-3.361,16.717,2.731,35.015,15.445,46.379c0.369,0.33,0.745,0.654,1.126,0.972 c-2.359,0.411-4.689,0.983-6.969,1.714C7.582,68.775,3.634,70.61,0,72.945c8.85,9.963,23.134,14.771,36.208,12.186 c3.524-0.697,7.002-1.919,9.887-4.057c0.073-0.054,0.145-0.111,0.218-0.167c-0.987,5.662-2.714,11.136-5.104,16.221l7.509,2.806 c1.698-5.797,2.631-11.748,2.814-17.669c0.107,0.076,0.215,0.152,0.324,0.225c3.142,2.114,6.863,3.232,10.607,3.796 C76.352,88.379,91.161,82.628,100,71.71C96.061,69.427,91.816,67.684,87.422,66.495z" fill="#ffc46c" transform="scale(0.777457788565934)"></path>
</g><g transform="translate(780.5992018301307 -100) rotate(0)">
  <animateTransform attributeName="transform" type="translate" keyTimes="0;1" values="780.5992018301307 -100;1909.3923562772648 864" dur="25s" repeatCount="indefinite" begin="-11.416846417855636s"></animateTransform>
  <animateTransform attributeName="transform" type="rotate" keyTimes="0;1" begin="-11.416846417855636s" values="0 50 50;385.4114190206888 50 50" dur="25s" repeatCount="indefinite" additive="sum"></animateTransform>
  <path d="M87.422,66.495c-2.009-0.544-4.049-0.97-6.107-1.283c10.617-11.116,15.747-27.37,13.129-42.549 c-5.236,1.77-10.223,4.252-14.824,7.313c-4.13,2.747-7.948,5.961-11.374,9.55C67.425,24.863,61.344,10.451,50.991,0 c-4.015,5.451-7.281,11.444-9.753,17.744c-3.579,9.122-5.501,18.893-5.669,28.691c-4.79-7.979-11.256-14.955-18.858-20.322 c-4.514-3.187-9.431-5.806-14.616-7.72c-3.361,16.717,2.731,35.015,15.445,46.379c0.369,0.33,0.745,0.654,1.126,0.972 c-2.359,0.411-4.689,0.983-6.969,1.714C7.582,68.775,3.634,70.61,0,72.945c8.85,9.963,23.134,14.771,36.208,12.186 c3.524-0.697,7.002-1.919,9.887-4.057c0.073-0.054,0.145-0.111,0.218-0.167c-0.987,5.662-2.714,11.136-5.104,16.221l7.509,2.806 c1.698-5.797,2.631-11.748,2.814-17.669c0.107,0.076,0.215,0.152,0.324,0.225c3.142,2.114,6.863,3.232,10.607,3.796 C76.352,88.379,91.161,82.628,100,71.71C96.061,69.427,91.816,67.684,87.422,66.495z" fill="#ffc46c" transform="scale(1.404014532956275)"></path>
</g><g transform="translate(-100 22.03173723485091) rotate(0)">
  <animateTransform attributeName="transform" type="translate" keyTimes="0;1" values="-100 22.03173723485091;597.6321092734418 864" dur="25s" repeatCount="indefinite" begin="-10.826459081962081s"></animateTransform>
  <animateTransform attributeName="transform" type="rotate" keyTimes="0;1" begin="-10.826459081962081s" values="0 50 50;943.2356219674847 50 50" dur="25s" repeatCount="indefinite" additive="sum"></animateTransform>
  <path d="M87.422,66.495c-2.009-0.544-4.049-0.97-6.107-1.283c10.617-11.116,15.747-27.37,13.129-42.549 c-5.236,1.77-10.223,4.252-14.824,7.313c-4.13,2.747-7.948,5.961-11.374,9.55C67.425,24.863,61.344,10.451,50.991,0 c-4.015,5.451-7.281,11.444-9.753,17.744c-3.579,9.122-5.501,18.893-5.669,28.691c-4.79-7.979-11.256-14.955-18.858-20.322 c-4.514-3.187-9.431-5.806-14.616-7.72c-3.361,16.717,2.731,35.015,15.445,46.379c0.369,0.33,0.745,0.654,1.126,0.972 c-2.359,0.411-4.689,0.983-6.969,1.714C7.582,68.775,3.634,70.61,0,72.945c8.85,9.963,23.134,14.771,36.208,12.186 c3.524-0.697,7.002-1.919,9.887-4.057c0.073-0.054,0.145-0.111,0.218-0.167c-0.987,5.662-2.714,11.136-5.104,16.221l7.509,2.806 c1.698-5.797,2.631-11.748,2.814-17.669c0.107,0.076,0.215,0.152,0.324,0.225c3.142,2.114,6.863,3.232,10.607,3.796 C76.352,88.379,91.161,82.628,100,71.71C96.061,69.427,91.816,67.684,87.422,66.495z" fill="#f86161" transform="scale(1.0193995868706274)"></path>
</g><g transform="translate(-100 11.381251358319881) rotate(0)">
  <animateTransform attributeName="transform" type="translate" keyTimes="0;1" values="-100 11.381251358319881;1240 491.7773191080789" dur="25s" repeatCount="indefinite" begin="-20.802812677652128s"></animateTransform>
  <animateTransform attributeName="transform" type="rotate" keyTimes="0;1" begin="-20.802812677652128s" values="0 50 50;653.6386311034123 50 50" dur="25s" repeatCount="indefinite" additive="sum"></animateTransform>
  <path d="M87.422,66.495c-2.009-0.544-4.049-0.97-6.107-1.283c10.617-11.116,15.747-27.37,13.129-42.549 c-5.236,1.77-10.223,4.252-14.824,7.313c-4.13,2.747-7.948,5.961-11.374,9.55C67.425,24.863,61.344,10.451,50.991,0 c-4.015,5.451-7.281,11.444-9.753,17.744c-3.579,9.122-5.501,18.893-5.669,28.691c-4.79-7.979-11.256-14.955-18.858-20.322 c-4.514-3.187-9.431-5.806-14.616-7.72c-3.361,16.717,2.731,35.015,15.445,46.379c0.369,0.33,0.745,0.654,1.126,0.972 c-2.359,0.411-4.689,0.983-6.969,1.714C7.582,68.775,3.634,70.61,0,72.945c8.85,9.963,23.134,14.771,36.208,12.186 c3.524-0.697,7.002-1.919,9.887-4.057c0.073-0.054,0.145-0.111,0.218-0.167c-0.987,5.662-2.714,11.136-5.104,16.221l7.509,2.806 c1.698-5.797,2.631-11.748,2.814-17.669c0.107,0.076,0.215,0.152,0.324,0.225c3.142,2.114,6.863,3.232,10.607,3.796 C76.352,88.379,91.161,82.628,100,71.71C96.061,69.427,91.816,67.684,87.422,66.495z" fill="#ffc46c" transform="scale(1.4769009306550682)"></path>
</g><g transform="translate(-100 33.13296216252878) rotate(0)">
  <animateTransform attributeName="transform" type="translate" keyTimes="0;1" values="-100 33.13296216252878;1348.1544545744782 864" dur="25s" repeatCount="indefinite" begin="-12.874887533490414s"></animateTransform>
  <animateTransform attributeName="transform" type="rotate" keyTimes="0;1" begin="-12.874887533490414s" values="0 50 50;80.52950439063908 50 50" dur="25s" repeatCount="indefinite" additive="sum"></animateTransform>
  <path d="M87.422,66.495c-2.009-0.544-4.049-0.97-6.107-1.283c10.617-11.116,15.747-27.37,13.129-42.549 c-5.236,1.77-10.223,4.252-14.824,7.313c-4.13,2.747-7.948,5.961-11.374,9.55C67.425,24.863,61.344,10.451,50.991,0 c-4.015,5.451-7.281,11.444-9.753,17.744c-3.579,9.122-5.501,18.893-5.669,28.691c-4.79-7.979-11.256-14.955-18.858-20.322 c-4.514-3.187-9.431-5.806-14.616-7.72c-3.361,16.717,2.731,35.015,15.445,46.379c0.369,0.33,0.745,0.654,1.126,0.972 c-2.359,0.411-4.689,0.983-6.969,1.714C7.582,68.775,3.634,70.61,0,72.945c8.85,9.963,23.134,14.771,36.208,12.186 c3.524-0.697,7.002-1.919,9.887-4.057c0.073-0.054,0.145-0.111,0.218-0.167c-0.987,5.662-2.714,11.136-5.104,16.221l7.509,2.806 c1.698-5.797,2.631-11.748,2.814-17.669c0.107,0.076,0.215,0.152,0.324,0.225c3.142,2.114,6.863,3.232,10.607,3.796 C76.352,88.379,91.161,82.628,100,71.71C96.061,69.427,91.816,67.684,87.422,66.495z" fill="#ff9f32" transform="scale(1.4890278500554102)"></path>
</g><g transform="translate(155.43316367829402 -100) rotate(0)">
  <animateTransform attributeName="transform" type="translate" keyTimes="0;1" values="155.43316367829402 -100;1240 755.4738759090733" dur="25s" repeatCount="indefinite" begin="-6.219565259202997s"></animateTransform>
  <animateTransform attributeName="transform" type="rotate" keyTimes="0;1" begin="-6.219565259202997s" values="0 50 50;989.324714657516 50 50" dur="25s" repeatCount="indefinite" additive="sum"></animateTransform>
  <path d="M87.422,66.495c-2.009-0.544-4.049-0.97-6.107-1.283c10.617-11.116,15.747-27.37,13.129-42.549 c-5.236,1.77-10.223,4.252-14.824,7.313c-4.13,2.747-7.948,5.961-11.374,9.55C67.425,24.863,61.344,10.451,50.991,0 c-4.015,5.451-7.281,11.444-9.753,17.744c-3.579,9.122-5.501,18.893-5.669,28.691c-4.79-7.979-11.256-14.955-18.858-20.322 c-4.514-3.187-9.431-5.806-14.616-7.72c-3.361,16.717,2.731,35.015,15.445,46.379c0.369,0.33,0.745,0.654,1.126,0.972 c-2.359,0.411-4.689,0.983-6.969,1.714C7.582,68.775,3.634,70.61,0,72.945c8.85,9.963,23.134,14.771,36.208,12.186 c3.524-0.697,7.002-1.919,9.887-4.057c0.073-0.054,0.145-0.111,0.218-0.167c-0.987,5.662-2.714,11.136-5.104,16.221l7.509,2.806 c1.698-5.797,2.631-11.748,2.814-17.669c0.107,0.076,0.215,0.152,0.324,0.225c3.142,2.114,6.863,3.232,10.607,3.796 C76.352,88.379,91.161,82.628,100,71.71C96.061,69.427,91.816,67.684,87.422,66.495z" fill="#ffc46c" transform="scale(0.7652452561506785)"></path>
</g><g transform="translate(214.67433877605876 -100) rotate(0)">
  <animateTransform attributeName="transform" type="translate" keyTimes="0;1" values="214.67433877605876 -100;1240 409.3146719719506" dur="25s" repeatCount="indefinite" begin="-17.306496246802805s"></animateTransform>
  <animateTransform attributeName="transform" type="rotate" keyTimes="0;1" begin="-17.306496246802805s" values="0 50 50;644.7489431794753 50 50" dur="25s" repeatCount="indefinite" additive="sum"></animateTransform>
  <path d="M87.422,66.495c-2.009-0.544-4.049-0.97-6.107-1.283c10.617-11.116,15.747-27.37,13.129-42.549 c-5.236,1.77-10.223,4.252-14.824,7.313c-4.13,2.747-7.948,5.961-11.374,9.55C67.425,24.863,61.344,10.451,50.991,0 c-4.015,5.451-7.281,11.444-9.753,17.744c-3.579,9.122-5.501,18.893-5.669,28.691c-4.79-7.979-11.256-14.955-18.858-20.322 c-4.514-3.187-9.431-5.806-14.616-7.72c-3.361,16.717,2.731,35.015,15.445,46.379c0.369,0.33,0.745,0.654,1.126,0.972 c-2.359,0.411-4.689,0.983-6.969,1.714C7.582,68.775,3.634,70.61,0,72.945c8.85,9.963,23.134,14.771,36.208,12.186 c3.524-0.697,7.002-1.919,9.887-4.057c0.073-0.054,0.145-0.111,0.218-0.167c-0.987,5.662-2.714,11.136-5.104,16.221l7.509,2.806 c1.698-5.797,2.631-11.748,2.814-17.669c0.107,0.076,0.215,0.152,0.324,0.225c3.142,2.114,6.863,3.232,10.607,3.796 C76.352,88.379,91.161,82.628,100,71.71C96.061,69.427,91.816,67.684,87.422,66.495z" fill="#f86161" transform="scale(1.2449100068820707)"></path>
</g><g transform="translate(838.1771008829876 -100) rotate(0)">
  <animateTransform attributeName="transform" type="translate" keyTimes="0;1" values="838.1771008829876 -100;1240 380.1889846479412" dur="25s" repeatCount="indefinite" begin="-7.033588618120773s"></animateTransform>
  <animateTransform attributeName="transform" type="rotate" keyTimes="0;1" begin="-7.033588618120773s" values="0 50 50;245.72543298607607 50 50" dur="25s" repeatCount="indefinite" additive="sum"></animateTransform>
  <path d="M87.422,66.495c-2.009-0.544-4.049-0.97-6.107-1.283c10.617-11.116,15.747-27.37,13.129-42.549 c-5.236,1.77-10.223,4.252-14.824,7.313c-4.13,2.747-7.948,5.961-11.374,9.55C67.425,24.863,61.344,10.451,50.991,0 c-4.015,5.451-7.281,11.444-9.753,17.744c-3.579,9.122-5.501,18.893-5.669,28.691c-4.79-7.979-11.256-14.955-18.858-20.322 c-4.514-3.187-9.431-5.806-14.616-7.72c-3.361,16.717,2.731,35.015,15.445,46.379c0.369,0.33,0.745,0.654,1.126,0.972 c-2.359,0.411-4.689,0.983-6.969,1.714C7.582,68.775,3.634,70.61,0,72.945c8.85,9.963,23.134,14.771,36.208,12.186 c3.524-0.697,7.002-1.919,9.887-4.057c0.073-0.054,0.145-0.111,0.218-0.167c-0.987,5.662-2.714,11.136-5.104,16.221l7.509,2.806 c1.698-5.797,2.631-11.748,2.814-17.669c0.107,0.076,0.215,0.152,0.324,0.225c3.142,2.114,6.863,3.232,10.607,3.796 C76.352,88.379,91.161,82.628,100,71.71C96.061,69.427,91.816,67.684,87.422,66.495z" fill="#f86161" transform="scale(1.3474589642402006)"></path>
</g><g transform="translate(-100 76.37613654147805) rotate(0)">
  <animateTransform attributeName="transform" type="translate" keyTimes="0;1" values="-100 76.37613654147805;663.2420632972725 864" dur="25s" repeatCount="indefinite" begin="-18.161278223371745s"></animateTransform>
  <animateTransform attributeName="transform" type="rotate" keyTimes="0;1" begin="-18.161278223371745s" values="0 50 50;491.20606777376196 50 50" dur="25s" repeatCount="indefinite" additive="sum"></animateTransform>
  <path d="M87.422,66.495c-2.009-0.544-4.049-0.97-6.107-1.283c10.617-11.116,15.747-27.37,13.129-42.549 c-5.236,1.77-10.223,4.252-14.824,7.313c-4.13,2.747-7.948,5.961-11.374,9.55C67.425,24.863,61.344,10.451,50.991,0 c-4.015,5.451-7.281,11.444-9.753,17.744c-3.579,9.122-5.501,18.893-5.669,28.691c-4.79-7.979-11.256-14.955-18.858-20.322 c-4.514-3.187-9.431-5.806-14.616-7.72c-3.361,16.717,2.731,35.015,15.445,46.379c0.369,0.33,0.745,0.654,1.126,0.972 c-2.359,0.411-4.689,0.983-6.969,1.714C7.582,68.775,3.634,70.61,0,72.945c8.85,9.963,23.134,14.771,36.208,12.186 c3.524-0.697,7.002-1.919,9.887-4.057c0.073-0.054,0.145-0.111,0.218-0.167c-0.987,5.662-2.714,11.136-5.104,16.221l7.509,2.806 c1.698-5.797,2.631-11.748,2.814-17.669c0.107,0.076,0.215,0.152,0.324,0.225c3.142,2.114,6.863,3.232,10.607,3.796 C76.352,88.379,91.161,82.628,100,71.71C96.061,69.427,91.816,67.684,87.422,66.495z" fill="#f86161" transform="scale(0.7077340141051203)"></path>
</g><g transform="translate(340.2943221055841 -100) rotate(0)">
  <animateTransform attributeName="transform" type="translate" keyTimes="0;1" values="340.2943221055841 -100;986.6452740416676 864" dur="25s" repeatCount="indefinite" begin="-5.236127548420816s"></animateTransform>
  <animateTransform attributeName="transform" type="rotate" keyTimes="0;1" begin="-5.236127548420816s" values="0 50 50;336.66727024196365 50 50" dur="25s" repeatCount="indefinite" additive="sum"></animateTransform>
  <path d="M87.422,66.495c-2.009-0.544-4.049-0.97-6.107-1.283c10.617-11.116,15.747-27.37,13.129-42.549 c-5.236,1.77-10.223,4.252-14.824,7.313c-4.13,2.747-7.948,5.961-11.374,9.55C67.425,24.863,61.344,10.451,50.991,0 c-4.015,5.451-7.281,11.444-9.753,17.744c-3.579,9.122-5.501,18.893-5.669,28.691c-4.79-7.979-11.256-14.955-18.858-20.322 c-4.514-3.187-9.431-5.806-14.616-7.72c-3.361,16.717,2.731,35.015,15.445,46.379c0.369,0.33,0.745,0.654,1.126,0.972 c-2.359,0.411-4.689,0.983-6.969,1.714C7.582,68.775,3.634,70.61,0,72.945c8.85,9.963,23.134,14.771,36.208,12.186 c3.524-0.697,7.002-1.919,9.887-4.057c0.073-0.054,0.145-0.111,0.218-0.167c-0.987,5.662-2.714,11.136-5.104,16.221l7.509,2.806 c1.698-5.797,2.631-11.748,2.814-17.669c0.107,0.076,0.215,0.152,0.324,0.225c3.142,2.114,6.863,3.232,10.607,3.796 C76.352,88.379,91.161,82.628,100,71.71C96.061,69.427,91.816,67.684,87.422,66.495z" fill="#f86161" transform="scale(1.2160568594322465)"></path>
</g><g transform="translate(372.8646068437532 -100) rotate(0)">
  <animateTransform attributeName="transform" type="translate" keyTimes="0;1" values="372.8646068437532 -100;1240 481.583667828044" dur="25s" repeatCount="indefinite" begin="-19.938436508939322s"></animateTransform>
  <animateTransform attributeName="transform" type="rotate" keyTimes="0;1" begin="-19.938436508939322s" values="0 50 50;265.4443940560886 50 50" dur="25s" repeatCount="indefinite" additive="sum"></animateTransform>
  <path d="M87.422,66.495c-2.009-0.544-4.049-0.97-6.107-1.283c10.617-11.116,15.747-27.37,13.129-42.549 c-5.236,1.77-10.223,4.252-14.824,7.313c-4.13,2.747-7.948,5.961-11.374,9.55C67.425,24.863,61.344,10.451,50.991,0 c-4.015,5.451-7.281,11.444-9.753,17.744c-3.579,9.122-5.501,18.893-5.669,28.691c-4.79-7.979-11.256-14.955-18.858-20.322 c-4.514-3.187-9.431-5.806-14.616-7.72c-3.361,16.717,2.731,35.015,15.445,46.379c0.369,0.33,0.745,0.654,1.126,0.972 c-2.359,0.411-4.689,0.983-6.969,1.714C7.582,68.775,3.634,70.61,0,72.945c8.85,9.963,23.134,14.771,36.208,12.186 c3.524-0.697,7.002-1.919,9.887-4.057c0.073-0.054,0.145-0.111,0.218-0.167c-0.987,5.662-2.714,11.136-5.104,16.221l7.509,2.806 c1.698-5.797,2.631-11.748,2.814-17.669c0.107,0.076,0.215,0.152,0.324,0.225c3.142,2.114,6.863,3.232,10.607,3.796 C76.352,88.379,91.161,82.628,100,71.71C96.061,69.427,91.816,67.684,87.422,66.495z" fill="#f86161" transform="scale(1.471377965735695)"></path>
</g><g transform="translate(1125.3356694636784 -100) rotate(0)">
  <animateTransform attributeName="transform" type="translate" keyTimes="0;1" values="1125.3356694636784 -100;1240 355.93948166344063" dur="25s" repeatCount="indefinite" begin="-22.00334119117168s"></animateTransform>
  <animateTransform attributeName="transform" type="rotate" keyTimes="0;1" begin="-22.00334119117168s" values="0 50 50;622.452798579694 50 50" dur="25s" repeatCount="indefinite" additive="sum"></animateTransform>
  <path d="M87.422,66.495c-2.009-0.544-4.049-0.97-6.107-1.283c10.617-11.116,15.747-27.37,13.129-42.549 c-5.236,1.77-10.223,4.252-14.824,7.313c-4.13,2.747-7.948,5.961-11.374,9.55C67.425,24.863,61.344,10.451,50.991,0 c-4.015,5.451-7.281,11.444-9.753,17.744c-3.579,9.122-5.501,18.893-5.669,28.691c-4.79-7.979-11.256-14.955-18.858-20.322 c-4.514-3.187-9.431-5.806-14.616-7.72c-3.361,16.717,2.731,35.015,15.445,46.379c0.369,0.33,0.745,0.654,1.126,0.972 c-2.359,0.411-4.689,0.983-6.969,1.714C7.582,68.775,3.634,70.61,0,72.945c8.85,9.963,23.134,14.771,36.208,12.186 c3.524-0.697,7.002-1.919,9.887-4.057c0.073-0.054,0.145-0.111,0.218-0.167c-0.987,5.662-2.714,11.136-5.104,16.221l7.509,2.806 c1.698-5.797,2.631-11.748,2.814-17.669c0.107,0.076,0.215,0.152,0.324,0.225c3.142,2.114,6.863,3.232,10.607,3.796 C76.352,88.379,91.161,82.628,100,71.71C96.061,69.427,91.816,67.684,87.422,66.495z" fill="#ff956e" transform="scale(0.971887565352913)"></path>
</g></g>
</svg>