<?xml version="1.0" encoding="utf-8"?>
<svg xmlns="http://www.w3.org/2000/svg" xmlns:xlink="http://www.w3.org/1999/xlink" style="background: rgb(238, 238, 238); display: block; position: relative; shape-rendering: auto;" width="227" height="227" preserveAspectRatio="xMidYMid" viewBox="0 0 227 227"><g transform="scale(0.89)" data-fill="c3" style="fill: rgb(0, 0, 0);">


<defs><g id="id-0.7996825163242272" data-fill="c3" style="fill: rgb(0, 0, 0);"><!--Generator: Adobe Illustrator 21.0.0, SVG Export Plug-In . SVG Version: 6.00 Build 0)--><style type="text/css" data-fill="c3" style="fill: rgb(0, 0, 0);">.st2{stroke:#333;stroke-linecap:round;fill:none;stroke-linejoin:round}.st2,.st6,.st9{stroke-width:3.5;stroke-miterlimit:10}.st6{stroke-linejoin:round;fill:#fff;stroke:#333}.st9{stroke:#000}.st19,.st9{opacity:.2}.st35,.st36{stroke-width:3.5;stroke-miterlimit:10}.st35,.st36,.st37,.st38{stroke:#333;stroke-linejoin:round;fill:#f47e5f}.st36,.st37,.st38{fill:#f4e6c8}.st37,.st38{stroke-width:3.5;stroke-miterlimit:10;fill:#f7b26a}.st38{fill:#333;stroke-linecap:round}</style><g data-fill="c3" style="fill: rgb(0, 0, 0);"><polygon class="st6" points="11.369,18.469 11.369,81.531 40.383,81.531 59.332,81.531 59.332,61.146 59.332,18.469 	" data-fill="c1" data-stroke="c2" style="fill: rgb(255, 255, 255); stroke: rgb(51, 51, 51);"></polygon><line class="st2" x1="22.028" y1="28.239" x2="48.674" y2="28.239" data-stroke="c2" style="stroke: rgb(51, 51, 51);"></line><line class="st2" x1="22.028" y1="37.121" x2="48.674" y2="37.121" data-stroke="c2" style="stroke: rgb(51, 51, 51);"></line><line class="st2" x1="22.028" y1="46.003" x2="48.674" y2="46.003" data-stroke="c2" style="stroke: rgb(51, 51, 51);"></line><line class="st2" x1="22.028" y1="54.885" x2="48.674" y2="54.885" data-stroke="c2" style="stroke: rgb(51, 51, 51);"></line><line class="st2" x1="22.028" y1="63.767" x2="48.674" y2="63.767" data-stroke="c2" style="stroke: rgb(51, 51, 51);"></line><line class="st2" x1="22.028" y1="72.649" x2="26.604" y2="72.649" data-stroke="c2" style="stroke: rgb(51, 51, 51);"></line><polygon class="st9" points="30.343,81.531 40.383,81.531 59.332,81.531 59.332,61.146 59.332,18.469 42.043,18.469 	" data-fill="c3" data-stroke="c3" style="fill: rgb(0, 0, 0); stroke: rgb(0, 0, 0);"></polygon></g><g data-fill="c3" style="fill: rgb(0, 0, 0);"><rect x="55.379" y="26.075" transform="matrix(0.7071 0.7071 -0.7071 0.7071 52.7007 -30.6702)" class="st35" width="15.988" height="44.41" data-fill="c4" data-stroke="c2" style="fill: rgb(244, 126, 95); stroke: rgb(51, 51, 51);"></rect><rect x="74.534" y="24.239" transform="matrix(0.7071 0.7071 -0.7071 0.7071 44.7662 -49.8259)" class="st36" width="15.988" height="9.77" data-fill="c5" data-stroke="c2" style="fill: rgb(244, 230, 200); stroke: rgb(51, 51, 51);"></rect><path class="st37" d="M53.075,69.882L41.77,58.577l-4.044,14.442c-0.155,0.552,0.354,1.061,0.907,0.907L53.075,69.882z" data-fill="c6" data-stroke="c2" style="fill: rgb(247, 178, 106); stroke: rgb(51, 51, 51);"></path><line class="st2" x1="54.26" y1="58.009" x2="73.102" y2="39.168" data-stroke="c2" style="stroke: rgb(51, 51, 51);"></line><path class="st38" d="M39.237,67.625l-1.51,5.394c-0.155,0.552,0.354,1.062,0.907,0.907l5.394-1.51L39.237,67.625z" data-fill="c2" data-stroke="c2" style="fill: rgb(51, 51, 51); stroke: rgb(51, 51, 51);"></path><path class="st19" d="M92.861,30.096l-5.504-5.504L36.856,75.093c0.621,0.521,1.456,0.725,2.245,0.504l14.442-4.044 c0.344-0.096,0.634-0.303,0.856-0.568c0.051-0.041,0.104-0.076,0.151-0.123l38.312-38.312 C93.539,31.872,93.539,30.773,92.861,30.096z" data-fill="c3" style="fill: rgb(0, 0, 0);"></path></g><metadata xmlns:d="https://loading.io/stock/" data-fill="c3" style="fill: rgb(0, 0, 0);"><d:name data-fill="c3" style="fill: rgb(0, 0, 0);">text</d:name><d:tags data-fill="c3" style="fill: rgb(0, 0, 0);">text,document,article,write,writer,editor,composer,journalism,news reporter,journalist,author</d:tags><d:license data-fill="c3" style="fill: rgb(0, 0, 0);">by</d:license><d:slug data-fill="c3" style="fill: rgb(0, 0, 0);">xz5ng8</d:slug></metadata></g></defs>

<!-- Generator: Adobe Illustrator 21.0.0, SVG Export Plug-In . SVG Version: 6.00 Build 0)  -->


















<g data-idx="0" data-dup="" dx="-128" dy="-128" style="transform-origin: -43.697px -33.235px; animation: 2.5641s linear 0s infinite normal forwards running breath-aa7f193c-650e-4327-95d2-6e5ec65bc35c;"><g transform="translate(-128,-128)"><polygon fill="#B3B4B4" points="95.261,98.953 73.345,96.2 74.22,90.577 94.461,93.724 " data-fill="c7" style="fill: rgb(179, 180, 180);"></polygon></g></g><g data-idx="0" data-dup="" dx="128" dy="-128" style="transform-origin: 212.303px -33.235px; animation: 2.5641s linear 0s infinite normal forwards running breath-aa7f193c-650e-4327-95d2-6e5ec65bc35c;"><g transform="translate(128,-128)"><polygon fill="#B3B4B4" points="95.261,98.953 73.345,96.2 74.22,90.577 94.461,93.724 " data-fill="c7" style="fill: rgb(179, 180, 180);"></polygon></g></g><g data-idx="1" data-dup="" dx="-128" dy="-128" style="transform-origin: -89.899px 85.4716px; animation: 2.5641s linear 0s infinite normal forwards running breath-aa7f193c-650e-4327-95d2-6e5ec65bc35c;"><g transform="translate(-128,-128)"><path fill="#B3B4B4" d="M38.105,224.49c-0.05,0-0.099,0-0.149-0.001c-2.943-0.039-5.694-1.221-7.748-3.33
	c-4.239-4.352-4.147-11.342,0.205-15.581c2.108-2.054,4.884-3.157,7.833-3.124c2.943,0.039,5.694,1.222,7.748,3.33
	c4.239,4.352,4.147,11.342-0.205,15.58C43.716,223.383,40.992,224.49,38.105,224.49z M38.098,207.494
	c-1.567,0-3.044,0.6-4.169,1.695c-2.361,2.3-2.411,6.092-0.111,8.453c1.114,1.144,2.607,1.785,4.204,1.806
	c1.609,0.014,3.106-0.581,4.25-1.695c2.361-2.3,2.411-6.092,0.112-8.453l0,0c-1.114-1.144-2.607-1.785-4.204-1.806
	C38.152,207.494,38.125,207.494,38.098,207.494z" data-fill="c7" style="fill: rgb(179, 180, 180);"></path></g></g><g data-idx="1" data-dup="" dx="128" dy="-128" style="transform-origin: 166.101px 85.4716px; animation: 2.5641s linear 0s infinite normal forwards running breath-aa7f193c-650e-4327-95d2-6e5ec65bc35c;"><g transform="translate(128,-128)"><path fill="#B3B4B4" d="M38.105,224.49c-0.05,0-0.099,0-0.149-0.001c-2.943-0.039-5.694-1.221-7.748-3.33
	c-4.239-4.352-4.147-11.342,0.205-15.581c2.108-2.054,4.884-3.157,7.833-3.124c2.943,0.039,5.694,1.222,7.748,3.33
	c4.239,4.352,4.147,11.342-0.205,15.58C43.716,223.383,40.992,224.49,38.105,224.49z M38.098,207.494
	c-1.567,0-3.044,0.6-4.169,1.695c-2.361,2.3-2.411,6.092-0.111,8.453c1.114,1.144,2.607,1.785,4.204,1.806
	c1.609,0.014,3.106-0.581,4.25-1.695c2.361-2.3,2.411-6.092,0.112-8.453l0,0c-1.114-1.144-2.607-1.785-4.204-1.806
	C38.152,207.494,38.125,207.494,38.098,207.494z" data-fill="c7" style="fill: rgb(179, 180, 180);"></path></g></g><g data-idx="2" data-dup="" dx="-128" dy="-128" style="transform-origin: 106.49px -80.4995px; animation: 2.5641s linear 0s infinite normal forwards running breath-aa7f193c-650e-4327-95d2-6e5ec65bc35c;"><g transform="translate(-128,-128)"><ellipse transform="matrix(0.7249 -0.6888 0.6888 0.7249 31.7828 174.5914)" fill="#B3B4B4" cx="234.5" cy="47.5" rx="4.4" ry="4.4" data-fill="c7" style="fill: rgb(179, 180, 180);"></ellipse></g></g><g data-idx="2" data-dup="" dx="128" dy="-128" style="transform-origin: 362.49px -80.4995px; animation: 2.5641s linear 0s infinite normal forwards running breath-aa7f193c-650e-4327-95d2-6e5ec65bc35c;"><g transform="translate(128,-128)"><ellipse transform="matrix(0.7249 -0.6888 0.6888 0.7249 31.7828 174.5914)" fill="#B3B4B4" cx="234.5" cy="47.5" rx="4.4" ry="4.4" data-fill="c7" style="fill: rgb(179, 180, 180);"></ellipse></g></g><g data-idx="3" data-dup="" dx="-128" dy="-128" style="transform-origin: 28.5333px 18.653px; animation: 2.5641s linear 0s infinite normal forwards running breath-aa7f193c-650e-4327-95d2-6e5ec65bc35c;"><g transform="translate(-128,-128)"><path fill="#B3B4B4" d="M156.299,159.176l-1.714-5.053c3.929-1.333,6.042-5.614,4.709-9.543c-0.645-1.903-1.994-3.442-3.796-4.331
	c-1.803-0.89-3.844-1.024-5.747-0.378l-1.714-5.053c3.254-1.103,6.741-0.874,9.822,0.646c3.08,1.52,5.385,4.149,6.488,7.402
	C166.625,149.582,163.015,156.898,156.299,159.176z" data-fill="c7" style="fill: rgb(179, 180, 180);"></path></g></g><g data-idx="3" data-dup="" dx="128" dy="-128" style="transform-origin: 284.533px 18.653px; animation: 2.5641s linear 0s infinite normal forwards running breath-aa7f193c-650e-4327-95d2-6e5ec65bc35c;"><g transform="translate(128,-128)"><path fill="#B3B4B4" d="M156.299,159.176l-1.714-5.053c3.929-1.333,6.042-5.614,4.709-9.543c-0.645-1.903-1.994-3.442-3.796-4.331
	c-1.803-0.89-3.844-1.024-5.747-0.378l-1.714-5.053c3.254-1.103,6.741-0.874,9.822,0.646c3.08,1.52,5.385,4.149,6.488,7.402
	C166.625,149.582,163.015,156.898,156.299,159.176z" data-fill="c7" style="fill: rgb(179, 180, 180);"></path></g></g><g data-idx="4" data-dup="" dx="-128" dy="-128" style="transform-origin: -25.5058px 21.4949px; animation: 2.5641s linear 0s infinite normal forwards running breath-aa7f193c-650e-4327-95d2-6e5ec65bc35c;"><g transform="translate(-128,-128)"><ellipse transform="matrix(0.7249 -0.6888 0.6888 0.7249 -74.7837 111.7244)" fill="#B3B4B4" cx="102.5" cy="149.5" rx="4.4" ry="4.4" data-fill="c7" style="fill: rgb(179, 180, 180);"></ellipse></g></g><g data-idx="4" data-dup="" dx="128" dy="-128" style="transform-origin: 230.494px 21.4949px; animation: 2.5641s linear 0s infinite normal forwards running breath-aa7f193c-650e-4327-95d2-6e5ec65bc35c;"><g transform="translate(128,-128)"><ellipse transform="matrix(0.7249 -0.6888 0.6888 0.7249 -74.7837 111.7244)" fill="#B3B4B4" cx="102.5" cy="149.5" rx="4.4" ry="4.4" data-fill="c7" style="fill: rgb(179, 180, 180);"></ellipse></g></g><g data-idx="5" data-dup="" dx="-128" dy="-128" style="transform-origin: 114.171px 116.691px; animation: 2.5641s linear 0s infinite normal forwards running breath-aa7f193c-650e-4327-95d2-6e5ec65bc35c;"><g transform="translate(-128,-128)"><polygon fill="#B3B4B4" points="231.486,249.178 247.065,235.877 252.857,238.786 235.18,253.505 " data-fill="c7" style="fill: rgb(179, 180, 180);"></polygon></g></g><g data-idx="5" data-dup="" dx="128" dy="-128" style="transform-origin: 370.171px 116.691px; animation: 2.5641s linear 0s infinite normal forwards running breath-aa7f193c-650e-4327-95d2-6e5ec65bc35c;"><g transform="translate(128,-128)"><polygon fill="#B3B4B4" points="231.486,249.178 247.065,235.877 252.857,238.786 235.18,253.505 " data-fill="c7" style="fill: rgb(179, 180, 180);"></polygon></g></g><g data-idx="6" data-dup="" dx="-128" dy="-128" style="transform-origin: -20.197px -96.9315px; animation: 2.5641s linear 0s infinite normal forwards running breath-aa7f193c-650e-4327-95d2-6e5ec65bc35c;"><g transform="translate(-128,-128)"><polygon fill="#B3B4B4" points="115.367,21.954 103.961,43.014 100.239,36.891 110.431,19.123 " data-fill="c7" style="fill: rgb(179, 180, 180);"></polygon></g></g><g data-idx="6" data-dup="" dx="128" dy="-128" style="transform-origin: 235.803px -96.9315px; animation: 2.5641s linear 0s infinite normal forwards running breath-aa7f193c-650e-4327-95d2-6e5ec65bc35c;"><g transform="translate(128,-128)"><polygon fill="#B3B4B4" points="115.367,21.954 103.961,43.014 100.239,36.891 110.431,19.123 " data-fill="c7" style="fill: rgb(179, 180, 180);"></polygon></g></g><g data-idx="7" data-dup="" dx="-128" dy="-128" style="transform-origin: 94.1px -7.15031px; animation: 2.5641s linear 0s infinite normal forwards running breath-aa7f193c-650e-4327-95d2-6e5ec65bc35c;"><g transform="translate(-128,-128)"><path fill="#B3B4B4" d="M222.104,130.57c-0.044,0-0.088,0-0.132-0.001c-2.596-0.034-5.024-1.077-6.835-2.937
	c-3.74-3.84-3.659-10.006,0.181-13.746c1.86-1.812,4.308-2.785,6.91-2.756c2.596,0.034,5.024,1.078,6.835,2.938
	c3.74,3.839,3.659,10.006-0.181,13.745C227.054,129.594,224.651,130.57,222.104,130.57z M222.099,115.576
	c-1.382,0-2.686,0.53-3.678,1.496c-2.083,2.029-2.127,5.374-0.098,7.458c0.983,1.009,2.3,1.575,3.708,1.594
	c1.42,0.013,2.74-0.512,3.749-1.495c2.083-2.029,2.127-5.374,0.098-7.457l0,0c-0.983-1.009-2.3-1.575-3.708-1.594
	C222.146,115.576,222.122,115.576,222.099,115.576z" data-fill="c7" style="fill: rgb(179, 180, 180);"></path></g></g><g data-idx="7" data-dup="" dx="128" dy="-128" style="transform-origin: 350.1px -7.15031px; animation: 2.5641s linear 0s infinite normal forwards running breath-aa7f193c-650e-4327-95d2-6e5ec65bc35c;"><g transform="translate(128,-128)"><path fill="#B3B4B4" d="M222.104,130.57c-0.044,0-0.088,0-0.132-0.001c-2.596-0.034-5.024-1.077-6.835-2.937
	c-3.74-3.84-3.659-10.006,0.181-13.746c1.86-1.812,4.308-2.785,6.91-2.756c2.596,0.034,5.024,1.078,6.835,2.938
	c3.74,3.839,3.659,10.006-0.181,13.745C227.054,129.594,224.651,130.57,222.104,130.57z M222.099,115.576
	c-1.382,0-2.686,0.53-3.678,1.496c-2.083,2.029-2.127,5.374-0.098,7.458c0.983,1.009,2.3,1.575,3.708,1.594
	c1.42,0.013,2.74-0.512,3.749-1.495c2.083-2.029,2.127-5.374,0.098-7.457l0,0c-0.983-1.009-2.3-1.575-3.708-1.594
	C222.146,115.576,222.122,115.576,222.099,115.576z" data-fill="c7" style="fill: rgb(179, 180, 180);"></path></g></g><g data-idx="8" data-dup="" dx="-128" dy="-128" style="transform-origin: 46.6647px -119.158px; animation: 2.5641s linear 0s infinite normal forwards running breath-aa7f193c-650e-4327-95d2-6e5ec65bc35c;"><g transform="translate(-128,-128)"><path fill="#B3B4B4" d="M184.509,10.022l-4.015,1.058c-0.822-3.122-4.032-4.993-7.154-4.17c-1.512,0.398-2.779,1.362-3.567,2.713
	c-0.788,1.352-1.003,2.929-0.603,4.44l-4.015,1.058c-0.681-2.585-0.315-5.28,1.031-7.589c1.346-2.309,3.511-3.956,6.096-4.637
	C177.619,1.489,183.103,4.687,184.509,10.022z" data-fill="c7" style="fill: rgb(179, 180, 180);"></path></g></g><g data-idx="8" data-dup="" dx="128" dy="-128" style="transform-origin: 302.665px -119.158px; animation: 2.5641s linear 0s infinite normal forwards running breath-aa7f193c-650e-4327-95d2-6e5ec65bc35c;"><g transform="translate(128,-128)"><path fill="#B3B4B4" d="M184.509,10.022l-4.015,1.058c-0.822-3.122-4.032-4.993-7.154-4.17c-1.512,0.398-2.779,1.362-3.567,2.713
	c-0.788,1.352-1.003,2.929-0.603,4.44l-4.015,1.058c-0.681-2.585-0.315-5.28,1.031-7.589c1.346-2.309,3.511-3.956,6.096-4.637
	C177.619,1.489,183.103,4.687,184.509,10.022z" data-fill="c7" style="fill: rgb(179, 180, 180);"></path></g></g><g data-idx="9" data-dup="" dx="-128" dy="-128" style="transform-origin: -5.61719px 94.574px; animation: 2.5641s linear 0s infinite normal forwards running breath-aa7f193c-650e-4327-95d2-6e5ec65bc35c;"><g transform="translate(-128,-128)"><g transform="matrix(0.9912 0.1325 -0.1325 0.9912 30.542 -14.083) translate(121.067,222.398) scale(0.6786666666666666)" data-fill="c3" style="fill: rgb(0, 0, 0);"><g data-icon="" transform="scale(0.82)" data-fill="c3" style="fill: rgb(0, 0, 0);">  <use xlink:href="#id-0.7996825163242272" x="-50" y="-50" data-fill="c3" style="fill: rgb(0, 0, 0);"></use>
</g></g></g></g><g data-idx="9" data-dup="" dx="128" dy="-128" style="transform-origin: 250.383px 94.574px; animation: 2.5641s linear 0s infinite normal forwards running breath-aa7f193c-650e-4327-95d2-6e5ec65bc35c;"><g transform="translate(128,-128)"><g transform="matrix(0.9912 0.1325 -0.1325 0.9912 30.542 -14.083) translate(121.067,222.398) scale(0.6786666666666666)" data-fill="c3" style="fill: rgb(0, 0, 0);"><g data-icon="" transform="scale(0.82)" data-fill="c3" style="fill: rgb(0, 0, 0);">  <use xlink:href="#id-0.7996825163242272" x="-50" y="-50" data-fill="c3" style="fill: rgb(0, 0, 0);"></use>
</g></g></g></g><g data-idx="10" data-dup="" dx="-128" dy="-128" style="transform-origin: 33.2146px -51.8998px; animation: 2.5641s linear 0s infinite normal forwards running breath-aa7f193c-650e-4327-95d2-6e5ec65bc35c;"><g transform="translate(-128,-128)"><g transform="matrix(-0.0456 0.999 -0.999 -0.0456 243.7065 -82.5047) translate(161.268,75.17099999999999) scale(0.47706666666666664)" data-fill="c3" style="fill: rgb(0, 0, 0);"><g data-icon="" transform="scale(0.82)" data-fill="c3" style="fill: rgb(0, 0, 0);">  <use xlink:href="#id-0.7996825163242272" x="-50" y="-50" data-fill="c3" style="fill: rgb(0, 0, 0);"></use>
</g></g></g></g><g data-idx="10" data-dup="" dx="128" dy="-128" style="transform-origin: 289.215px -51.8998px; animation: 2.5641s linear 0s infinite normal forwards running breath-aa7f193c-650e-4327-95d2-6e5ec65bc35c;"><g transform="translate(128,-128)"><g transform="matrix(-0.0456 0.999 -0.999 -0.0456 243.7065 -82.5047) translate(161.268,75.17099999999999) scale(0.47706666666666664)" data-fill="c3" style="fill: rgb(0, 0, 0);"><g data-icon="" transform="scale(0.82)" data-fill="c3" style="fill: rgb(0, 0, 0);">  <use xlink:href="#id-0.7996825163242272" x="-50" y="-50" data-fill="c3" style="fill: rgb(0, 0, 0);"></use>
</g></g></g></g><g data-idx="11" data-dup="" dx="-128" dy="-128" style="transform-origin: 87.9065px 64.2648px; animation: 2.5641s linear 0s infinite normal forwards running breath-aa7f193c-650e-4327-95d2-6e5ec65bc35c;"><g transform="translate(-128,-128)"><g transform="matrix(0.5905 -0.8071 0.8071 0.5905 -67.6584 252.8308) translate(215.293,193.0815) scale(0.5214666666666667)" data-fill="c3" style="fill: rgb(0, 0, 0);"><g data-icon="" transform="scale(0.82)" data-fill="c3" style="fill: rgb(0, 0, 0);">  <use xlink:href="#id-0.7996825163242272" x="-50" y="-50" data-fill="c3" style="fill: rgb(0, 0, 0);"></use>
</g></g></g></g><g data-idx="11" data-dup="" dx="128" dy="-128" style="transform-origin: 343.906px 64.2648px; animation: 2.5641s linear 0s infinite normal forwards running breath-aa7f193c-650e-4327-95d2-6e5ec65bc35c;"><g transform="translate(128,-128)"><g transform="matrix(0.5905 -0.8071 0.8071 0.5905 -67.6584 252.8308) translate(215.293,193.0815) scale(0.5214666666666667)" data-fill="c3" style="fill: rgb(0, 0, 0);"><g data-icon="" transform="scale(0.82)" data-fill="c3" style="fill: rgb(0, 0, 0);">  <use xlink:href="#id-0.7996825163242272" x="-50" y="-50" data-fill="c3" style="fill: rgb(0, 0, 0);"></use>
</g></g></g></g><g data-idx="12" data-dup="" dx="-128" dy="-128" style="transform-origin: -79.3667px -90.7182px; animation: 2.5641s linear 0s infinite normal forwards running breath-aa7f193c-650e-4327-95d2-6e5ec65bc35c;"><g transform="translate(-128,-128)"><g transform="matrix(-0.4749 -0.8801 0.8801 -0.4749 38.8277 99.7848) translate(49.185,38.308499999999995) scale(0.5980444444444444)" data-fill="c3" style="fill: rgb(0, 0, 0);"><g data-icon="" transform="scale(0.82)" data-fill="c3" style="fill: rgb(0, 0, 0);">  <use xlink:href="#id-0.7996825163242272" x="-50" y="-50" data-fill="c3" style="fill: rgb(0, 0, 0);"></use>
</g></g></g></g><g data-idx="12" data-dup="" dx="128" dy="-128" style="transform-origin: 176.633px -90.7182px; animation: 2.5641s linear 0s infinite normal forwards running breath-aa7f193c-650e-4327-95d2-6e5ec65bc35c;"><g transform="translate(128,-128)"><g transform="matrix(-0.4749 -0.8801 0.8801 -0.4749 38.8277 99.7848) translate(49.185,38.308499999999995) scale(0.5980444444444444)" data-fill="c3" style="fill: rgb(0, 0, 0);"><g data-icon="" transform="scale(0.82)" data-fill="c3" style="fill: rgb(0, 0, 0);">  <use xlink:href="#id-0.7996825163242272" x="-50" y="-50" data-fill="c3" style="fill: rgb(0, 0, 0);"></use>
</g></g></g></g><g data-idx="13" data-dup="" dx="-128" dy="-128" style="transform-origin: -88.696px 13.4501px; animation: 2.5641s linear 0s infinite normal forwards running breath-aa7f193c-650e-4327-95d2-6e5ec65bc35c;"><g transform="translate(-128,-128)"><g transform="matrix(0.7381 -0.6747 0.6747 0.7381 -85.9069 63.1885) translate(38.434,142.243) scale(0.607688888888889)" data-fill="c3" style="fill: rgb(0, 0, 0);"><g data-icon="" transform="scale(0.82)" data-fill="c3" style="fill: rgb(0, 0, 0);">  <use xlink:href="#id-0.7996825163242272" x="-50" y="-50" data-fill="c3" style="fill: rgb(0, 0, 0);"></use>
</g></g></g></g><g data-idx="13" data-dup="" dx="128" dy="-128" style="transform-origin: 167.304px 13.4501px; animation: 2.5641s linear 0s infinite normal forwards running breath-aa7f193c-650e-4327-95d2-6e5ec65bc35c;"><g transform="translate(128,-128)"><g transform="matrix(0.7381 -0.6747 0.6747 0.7381 -85.9069 63.1885) translate(38.434,142.243) scale(0.607688888888889)" data-fill="c3" style="fill: rgb(0, 0, 0);"><g data-icon="" transform="scale(0.82)" data-fill="c3" style="fill: rgb(0, 0, 0);">  <use xlink:href="#id-0.7996825163242272" x="-50" y="-50" data-fill="c3" style="fill: rgb(0, 0, 0);"></use>
</g></g></g></g><g data-idx="0" data-dup="" dx="-128" dy="128" style="transform-origin: -43.697px 222.765px; animation: 2.5641s linear 0s infinite normal forwards running breath-aa7f193c-650e-4327-95d2-6e5ec65bc35c;"><g transform="translate(-128,128)"><polygon fill="#B3B4B4" points="95.261,98.953 73.345,96.2 74.22,90.577 94.461,93.724 " data-fill="c7" style="fill: rgb(179, 180, 180);"></polygon></g></g><g data-idx="0" data-dup="" dx="128" dy="128" style="transform-origin: 212.303px 222.765px; animation: 2.5641s linear 0s infinite normal forwards running breath-aa7f193c-650e-4327-95d2-6e5ec65bc35c;"><g transform="translate(128,128)"><polygon fill="#B3B4B4" points="95.261,98.953 73.345,96.2 74.22,90.577 94.461,93.724 " data-fill="c7" style="fill: rgb(179, 180, 180);"></polygon></g></g><g data-idx="1" data-dup="" dx="-128" dy="128" style="transform-origin: -89.899px 341.472px; animation: 2.5641s linear 0s infinite normal forwards running breath-aa7f193c-650e-4327-95d2-6e5ec65bc35c;"><g transform="translate(-128,128)"><path fill="#B3B4B4" d="M38.105,224.49c-0.05,0-0.099,0-0.149-0.001c-2.943-0.039-5.694-1.221-7.748-3.33
	c-4.239-4.352-4.147-11.342,0.205-15.581c2.108-2.054,4.884-3.157,7.833-3.124c2.943,0.039,5.694,1.222,7.748,3.33
	c4.239,4.352,4.147,11.342-0.205,15.58C43.716,223.383,40.992,224.49,38.105,224.49z M38.098,207.494
	c-1.567,0-3.044,0.6-4.169,1.695c-2.361,2.3-2.411,6.092-0.111,8.453c1.114,1.144,2.607,1.785,4.204,1.806
	c1.609,0.014,3.106-0.581,4.25-1.695c2.361-2.3,2.411-6.092,0.112-8.453l0,0c-1.114-1.144-2.607-1.785-4.204-1.806
	C38.152,207.494,38.125,207.494,38.098,207.494z" data-fill="c7" style="fill: rgb(179, 180, 180);"></path></g></g><g data-idx="1" data-dup="" dx="128" dy="128" style="transform-origin: 166.101px 341.472px; animation: 2.5641s linear 0s infinite normal forwards running breath-aa7f193c-650e-4327-95d2-6e5ec65bc35c;"><g transform="translate(128,128)"><path fill="#B3B4B4" d="M38.105,224.49c-0.05,0-0.099,0-0.149-0.001c-2.943-0.039-5.694-1.221-7.748-3.33
	c-4.239-4.352-4.147-11.342,0.205-15.581c2.108-2.054,4.884-3.157,7.833-3.124c2.943,0.039,5.694,1.222,7.748,3.33
	c4.239,4.352,4.147,11.342-0.205,15.58C43.716,223.383,40.992,224.49,38.105,224.49z M38.098,207.494
	c-1.567,0-3.044,0.6-4.169,1.695c-2.361,2.3-2.411,6.092-0.111,8.453c1.114,1.144,2.607,1.785,4.204,1.806
	c1.609,0.014,3.106-0.581,4.25-1.695c2.361-2.3,2.411-6.092,0.112-8.453l0,0c-1.114-1.144-2.607-1.785-4.204-1.806
	C38.152,207.494,38.125,207.494,38.098,207.494z" data-fill="c7" style="fill: rgb(179, 180, 180);"></path></g></g><g data-idx="2" data-dup="" dx="-128" dy="128" style="transform-origin: 106.49px 175.501px; animation: 2.5641s linear 0s infinite normal forwards running breath-aa7f193c-650e-4327-95d2-6e5ec65bc35c;"><g transform="translate(-128,128)"><ellipse transform="matrix(0.7249 -0.6888 0.6888 0.7249 31.7828 174.5914)" fill="#B3B4B4" cx="234.5" cy="47.5" rx="4.4" ry="4.4" data-fill="c7" style="fill: rgb(179, 180, 180);"></ellipse></g></g><g data-idx="2" data-dup="" dx="128" dy="128" style="transform-origin: 362.49px 175.501px; animation: 2.5641s linear 0s infinite normal forwards running breath-aa7f193c-650e-4327-95d2-6e5ec65bc35c;"><g transform="translate(128,128)"><ellipse transform="matrix(0.7249 -0.6888 0.6888 0.7249 31.7828 174.5914)" fill="#B3B4B4" cx="234.5" cy="47.5" rx="4.4" ry="4.4" data-fill="c7" style="fill: rgb(179, 180, 180);"></ellipse></g></g><g data-idx="3" data-dup="" dx="-128" dy="128" style="transform-origin: 28.5333px 274.653px; animation: 2.5641s linear 0s infinite normal forwards running breath-aa7f193c-650e-4327-95d2-6e5ec65bc35c;"><g transform="translate(-128,128)"><path fill="#B3B4B4" d="M156.299,159.176l-1.714-5.053c3.929-1.333,6.042-5.614,4.709-9.543c-0.645-1.903-1.994-3.442-3.796-4.331
	c-1.803-0.89-3.844-1.024-5.747-0.378l-1.714-5.053c3.254-1.103,6.741-0.874,9.822,0.646c3.08,1.52,5.385,4.149,6.488,7.402
	C166.625,149.582,163.015,156.898,156.299,159.176z" data-fill="c7" style="fill: rgb(179, 180, 180);"></path></g></g><g data-idx="3" data-dup="" dx="128" dy="128" style="transform-origin: 284.533px 274.653px; animation: 2.5641s linear 0s infinite normal forwards running breath-aa7f193c-650e-4327-95d2-6e5ec65bc35c;"><g transform="translate(128,128)"><path fill="#B3B4B4" d="M156.299,159.176l-1.714-5.053c3.929-1.333,6.042-5.614,4.709-9.543c-0.645-1.903-1.994-3.442-3.796-4.331
	c-1.803-0.89-3.844-1.024-5.747-0.378l-1.714-5.053c3.254-1.103,6.741-0.874,9.822,0.646c3.08,1.52,5.385,4.149,6.488,7.402
	C166.625,149.582,163.015,156.898,156.299,159.176z" data-fill="c7" style="fill: rgb(179, 180, 180);"></path></g></g><g data-idx="4" data-dup="" dx="-128" dy="128" style="transform-origin: -25.5058px 277.495px; animation: 2.5641s linear 0s infinite normal forwards running breath-aa7f193c-650e-4327-95d2-6e5ec65bc35c;"><g transform="translate(-128,128)"><ellipse transform="matrix(0.7249 -0.6888 0.6888 0.7249 -74.7837 111.7244)" fill="#B3B4B4" cx="102.5" cy="149.5" rx="4.4" ry="4.4" data-fill="c7" style="fill: rgb(179, 180, 180);"></ellipse></g></g><g data-idx="4" data-dup="" dx="128" dy="128" style="transform-origin: 230.494px 277.495px; animation: 2.5641s linear 0s infinite normal forwards running breath-aa7f193c-650e-4327-95d2-6e5ec65bc35c;"><g transform="translate(128,128)"><ellipse transform="matrix(0.7249 -0.6888 0.6888 0.7249 -74.7837 111.7244)" fill="#B3B4B4" cx="102.5" cy="149.5" rx="4.4" ry="4.4" data-fill="c7" style="fill: rgb(179, 180, 180);"></ellipse></g></g><g data-idx="5" data-dup="" dx="-128" dy="128" style="transform-origin: 114.171px 372.691px; animation: 2.5641s linear 0s infinite normal forwards running breath-aa7f193c-650e-4327-95d2-6e5ec65bc35c;"><g transform="translate(-128,128)"><polygon fill="#B3B4B4" points="231.486,249.178 247.065,235.877 252.857,238.786 235.18,253.505 " data-fill="c7" style="fill: rgb(179, 180, 180);"></polygon></g></g><g data-idx="5" data-dup="" dx="128" dy="128" style="transform-origin: 370.171px 372.691px; animation: 2.5641s linear 0s infinite normal forwards running breath-aa7f193c-650e-4327-95d2-6e5ec65bc35c;"><g transform="translate(128,128)"><polygon fill="#B3B4B4" points="231.486,249.178 247.065,235.877 252.857,238.786 235.18,253.505 " data-fill="c7" style="fill: rgb(179, 180, 180);"></polygon></g></g><g data-idx="6" data-dup="" dx="-128" dy="128" style="transform-origin: -20.197px 159.069px; animation: 2.5641s linear 0s infinite normal forwards running breath-aa7f193c-650e-4327-95d2-6e5ec65bc35c;"><g transform="translate(-128,128)"><polygon fill="#B3B4B4" points="115.367,21.954 103.961,43.014 100.239,36.891 110.431,19.123 " data-fill="c7" style="fill: rgb(179, 180, 180);"></polygon></g></g><g data-idx="6" data-dup="" dx="128" dy="128" style="transform-origin: 235.803px 159.069px; animation: 2.5641s linear 0s infinite normal forwards running breath-aa7f193c-650e-4327-95d2-6e5ec65bc35c;"><g transform="translate(128,128)"><polygon fill="#B3B4B4" points="115.367,21.954 103.961,43.014 100.239,36.891 110.431,19.123 " data-fill="c7" style="fill: rgb(179, 180, 180);"></polygon></g></g><g data-idx="7" data-dup="" dx="-128" dy="128" style="transform-origin: 94.1px 248.85px; animation: 2.5641s linear 0s infinite normal forwards running breath-aa7f193c-650e-4327-95d2-6e5ec65bc35c;"><g transform="translate(-128,128)"><path fill="#B3B4B4" d="M222.104,130.57c-0.044,0-0.088,0-0.132-0.001c-2.596-0.034-5.024-1.077-6.835-2.937
	c-3.74-3.84-3.659-10.006,0.181-13.746c1.86-1.812,4.308-2.785,6.91-2.756c2.596,0.034,5.024,1.078,6.835,2.938
	c3.74,3.839,3.659,10.006-0.181,13.745C227.054,129.594,224.651,130.57,222.104,130.57z M222.099,115.576
	c-1.382,0-2.686,0.53-3.678,1.496c-2.083,2.029-2.127,5.374-0.098,7.458c0.983,1.009,2.3,1.575,3.708,1.594
	c1.42,0.013,2.74-0.512,3.749-1.495c2.083-2.029,2.127-5.374,0.098-7.457l0,0c-0.983-1.009-2.3-1.575-3.708-1.594
	C222.146,115.576,222.122,115.576,222.099,115.576z" data-fill="c7" style="fill: rgb(179, 180, 180);"></path></g></g><g data-idx="7" data-dup="" dx="128" dy="128" style="transform-origin: 350.1px 248.85px; animation: 2.5641s linear 0s infinite normal forwards running breath-aa7f193c-650e-4327-95d2-6e5ec65bc35c;"><g transform="translate(128,128)"><path fill="#B3B4B4" d="M222.104,130.57c-0.044,0-0.088,0-0.132-0.001c-2.596-0.034-5.024-1.077-6.835-2.937
	c-3.74-3.84-3.659-10.006,0.181-13.746c1.86-1.812,4.308-2.785,6.91-2.756c2.596,0.034,5.024,1.078,6.835,2.938
	c3.74,3.839,3.659,10.006-0.181,13.745C227.054,129.594,224.651,130.57,222.104,130.57z M222.099,115.576
	c-1.382,0-2.686,0.53-3.678,1.496c-2.083,2.029-2.127,5.374-0.098,7.458c0.983,1.009,2.3,1.575,3.708,1.594
	c1.42,0.013,2.74-0.512,3.749-1.495c2.083-2.029,2.127-5.374,0.098-7.457l0,0c-0.983-1.009-2.3-1.575-3.708-1.594
	C222.146,115.576,222.122,115.576,222.099,115.576z" data-fill="c7" style="fill: rgb(179, 180, 180);"></path></g></g><g data-idx="8" data-dup="" dx="-128" dy="128" style="transform-origin: 46.6647px 136.842px; animation: 2.5641s linear 0s infinite normal forwards running breath-aa7f193c-650e-4327-95d2-6e5ec65bc35c;"><g transform="translate(-128,128)"><path fill="#B3B4B4" d="M184.509,10.022l-4.015,1.058c-0.822-3.122-4.032-4.993-7.154-4.17c-1.512,0.398-2.779,1.362-3.567,2.713
	c-0.788,1.352-1.003,2.929-0.603,4.44l-4.015,1.058c-0.681-2.585-0.315-5.28,1.031-7.589c1.346-2.309,3.511-3.956,6.096-4.637
	C177.619,1.489,183.103,4.687,184.509,10.022z" data-fill="c7" style="fill: rgb(179, 180, 180);"></path></g></g><g data-idx="8" data-dup="" dx="128" dy="128" style="transform-origin: 302.665px 136.842px; animation: 2.5641s linear 0s infinite normal forwards running breath-aa7f193c-650e-4327-95d2-6e5ec65bc35c;"><g transform="translate(128,128)"><path fill="#B3B4B4" d="M184.509,10.022l-4.015,1.058c-0.822-3.122-4.032-4.993-7.154-4.17c-1.512,0.398-2.779,1.362-3.567,2.713
	c-0.788,1.352-1.003,2.929-0.603,4.44l-4.015,1.058c-0.681-2.585-0.315-5.28,1.031-7.589c1.346-2.309,3.511-3.956,6.096-4.637
	C177.619,1.489,183.103,4.687,184.509,10.022z" data-fill="c7" style="fill: rgb(179, 180, 180);"></path></g></g><g data-idx="9" data-dup="" dx="-128" dy="128" style="transform-origin: -5.61719px 350.574px; animation: 2.5641s linear 0s infinite normal forwards running breath-aa7f193c-650e-4327-95d2-6e5ec65bc35c;"><g transform="translate(-128,128)"><g transform="matrix(0.9912 0.1325 -0.1325 0.9912 30.542 -14.083) translate(121.067,222.398) scale(0.6786666666666666)" data-fill="c3" style="fill: rgb(0, 0, 0);"><g data-icon="" transform="scale(0.82)" data-fill="c3" style="fill: rgb(0, 0, 0);">  <use xlink:href="#id-0.7996825163242272" x="-50" y="-50" data-fill="c3" style="fill: rgb(0, 0, 0);"></use>
</g></g></g></g><g data-idx="9" data-dup="" dx="128" dy="128" style="transform-origin: 250.383px 350.574px; animation: 2.5641s linear 0s infinite normal forwards running breath-aa7f193c-650e-4327-95d2-6e5ec65bc35c;"><g transform="translate(128,128)"><g transform="matrix(0.9912 0.1325 -0.1325 0.9912 30.542 -14.083) translate(121.067,222.398) scale(0.6786666666666666)" data-fill="c3" style="fill: rgb(0, 0, 0);"><g data-icon="" transform="scale(0.82)" data-fill="c3" style="fill: rgb(0, 0, 0);">  <use xlink:href="#id-0.7996825163242272" x="-50" y="-50" data-fill="c3" style="fill: rgb(0, 0, 0);"></use>
</g></g></g></g><g data-idx="10" data-dup="" dx="-128" dy="128" style="transform-origin: 33.2146px 204.1px; animation: 2.5641s linear 0s infinite normal forwards running breath-aa7f193c-650e-4327-95d2-6e5ec65bc35c;"><g transform="translate(-128,128)"><g transform="matrix(-0.0456 0.999 -0.999 -0.0456 243.7065 -82.5047) translate(161.268,75.17099999999999) scale(0.47706666666666664)" data-fill="c3" style="fill: rgb(0, 0, 0);"><g data-icon="" transform="scale(0.82)" data-fill="c3" style="fill: rgb(0, 0, 0);">  <use xlink:href="#id-0.7996825163242272" x="-50" y="-50" data-fill="c3" style="fill: rgb(0, 0, 0);"></use>
</g></g></g></g><g data-idx="10" data-dup="" dx="128" dy="128" style="transform-origin: 289.215px 204.1px; animation: 2.5641s linear 0s infinite normal forwards running breath-aa7f193c-650e-4327-95d2-6e5ec65bc35c;"><g transform="translate(128,128)"><g transform="matrix(-0.0456 0.999 -0.999 -0.0456 243.7065 -82.5047) translate(161.268,75.17099999999999) scale(0.47706666666666664)" data-fill="c3" style="fill: rgb(0, 0, 0);"><g data-icon="" transform="scale(0.82)" data-fill="c3" style="fill: rgb(0, 0, 0);">  <use xlink:href="#id-0.7996825163242272" x="-50" y="-50" data-fill="c3" style="fill: rgb(0, 0, 0);"></use>
</g></g></g></g><g data-idx="11" data-dup="" dx="-128" dy="128" style="transform-origin: 87.9065px 320.265px; animation: 2.5641s linear 0s infinite normal forwards running breath-aa7f193c-650e-4327-95d2-6e5ec65bc35c;"><g transform="translate(-128,128)"><g transform="matrix(0.5905 -0.8071 0.8071 0.5905 -67.6584 252.8308) translate(215.293,193.0815) scale(0.5214666666666667)" data-fill="c3" style="fill: rgb(0, 0, 0);"><g data-icon="" transform="scale(0.82)" data-fill="c3" style="fill: rgb(0, 0, 0);">  <use xlink:href="#id-0.7996825163242272" x="-50" y="-50" data-fill="c3" style="fill: rgb(0, 0, 0);"></use>
</g></g></g></g><g data-idx="11" data-dup="" dx="128" dy="128" style="transform-origin: 343.906px 320.265px; animation: 2.5641s linear 0s infinite normal forwards running breath-aa7f193c-650e-4327-95d2-6e5ec65bc35c;"><g transform="translate(128,128)"><g transform="matrix(0.5905 -0.8071 0.8071 0.5905 -67.6584 252.8308) translate(215.293,193.0815) scale(0.5214666666666667)" data-fill="c3" style="fill: rgb(0, 0, 0);"><g data-icon="" transform="scale(0.82)" data-fill="c3" style="fill: rgb(0, 0, 0);">  <use xlink:href="#id-0.7996825163242272" x="-50" y="-50" data-fill="c3" style="fill: rgb(0, 0, 0);"></use>
</g></g></g></g><g data-idx="12" data-dup="" dx="-128" dy="128" style="transform-origin: -79.3667px 165.282px; animation: 2.5641s linear 0s infinite normal forwards running breath-aa7f193c-650e-4327-95d2-6e5ec65bc35c;"><g transform="translate(-128,128)"><g transform="matrix(-0.4749 -0.8801 0.8801 -0.4749 38.8277 99.7848) translate(49.185,38.308499999999995) scale(0.5980444444444444)" data-fill="c3" style="fill: rgb(0, 0, 0);"><g data-icon="" transform="scale(0.82)" data-fill="c3" style="fill: rgb(0, 0, 0);">  <use xlink:href="#id-0.7996825163242272" x="-50" y="-50" data-fill="c3" style="fill: rgb(0, 0, 0);"></use>
</g></g></g></g><g data-idx="12" data-dup="" dx="128" dy="128" style="transform-origin: 176.633px 165.282px; animation: 2.5641s linear 0s infinite normal forwards running breath-aa7f193c-650e-4327-95d2-6e5ec65bc35c;"><g transform="translate(128,128)"><g transform="matrix(-0.4749 -0.8801 0.8801 -0.4749 38.8277 99.7848) translate(49.185,38.308499999999995) scale(0.5980444444444444)" data-fill="c3" style="fill: rgb(0, 0, 0);"><g data-icon="" transform="scale(0.82)" data-fill="c3" style="fill: rgb(0, 0, 0);">  <use xlink:href="#id-0.7996825163242272" x="-50" y="-50" data-fill="c3" style="fill: rgb(0, 0, 0);"></use>
</g></g></g></g><g data-idx="13" data-dup="" dx="-128" dy="128" style="transform-origin: -88.696px 269.45px; animation: 2.5641s linear 0s infinite normal forwards running breath-aa7f193c-650e-4327-95d2-6e5ec65bc35c;"><g transform="translate(-128,128)"><g transform="matrix(0.7381 -0.6747 0.6747 0.7381 -85.9069 63.1885) translate(38.434,142.243) scale(0.607688888888889)" data-fill="c3" style="fill: rgb(0, 0, 0);"><g data-icon="" transform="scale(0.82)" data-fill="c3" style="fill: rgb(0, 0, 0);">  <use xlink:href="#id-0.7996825163242272" x="-50" y="-50" data-fill="c3" style="fill: rgb(0, 0, 0);"></use>
</g></g></g></g><g data-idx="13" data-dup="" dx="128" dy="128" style="transform-origin: 167.304px 269.45px; animation: 2.5641s linear 0s infinite normal forwards running breath-aa7f193c-650e-4327-95d2-6e5ec65bc35c;"><g transform="translate(128,128)"><g transform="matrix(0.7381 -0.6747 0.6747 0.7381 -85.9069 63.1885) translate(38.434,142.243) scale(0.607688888888889)" data-fill="c3" style="fill: rgb(0, 0, 0);"><g data-icon="" transform="scale(0.82)" data-fill="c3" style="fill: rgb(0, 0, 0);">  <use xlink:href="#id-0.7996825163242272" x="-50" y="-50" data-fill="c3" style="fill: rgb(0, 0, 0);"></use>
</g></g></g></g></g><style id="breath-aa7f193c-650e-4327-95d2-6e5ec65bc35c" data-anikit="">@keyframes breath-aa7f193c-650e-4327-95d2-6e5ec65bc35c
{
  0% {
    animation-timing-function: cubic-bezier(0.9647,0.2413,-0.0705,0.7911);
    transform: scale(0.9099999999999999);
  }
  51% {
    animation-timing-function: cubic-bezier(0.9226,0.2631,-0.0308,0.7628);
    transform: scale(1.02994);
  }
  100% {
    transform: scale(0.9099999999999999);
  }
}</style></svg>