<svg id="visual" viewBox="0 0 960 540" width="960" height="540" xmlns="http://www.w3.org/2000/svg" xmlns:xlink="http://www.w3.org/1999/xlink" version="1.1"><path d="M0 71L12.3 74.7C24.7 78.3 49.3 85.7 74 88.3C98.7 91 123.3 89 148 87.2C172.7 85.3 197.3 83.7 221.8 86.5C246.3 89.3 270.7 96.7 295.2 95.8C319.7 95 344.3 86 369 86C393.7 86 418.3 95 443 92.2C467.7 89.3 492.3 74.7 517 70.2C541.7 65.7 566.3 71.3 591 74.2C615.7 77 640.3 77 664.8 82.3C689.3 87.7 713.7 98.3 738.2 102.8C762.7 107.3 787.3 105.7 812 102C836.7 98.3 861.3 92.7 886 94.3C910.7 96 935.3 105 947.7 109.5L960 114L960 0L947.7 0C935.3 0 910.7 0 886 0C861.3 0 836.7 0 812 0C787.3 0 762.7 0 738.2 0C713.7 0 689.3 0 664.8 0C640.3 0 615.7 0 591 0C566.3 0 541.7 0 517 0C492.3 0 467.7 0 443 0C418.3 0 393.7 0 369 0C344.3 0 319.7 0 295.2 0C270.7 0 246.3 0 221.8 0C197.3 0 172.7 0 148 0C123.3 0 98.7 0 74 0C49.3 0 24.7 0 12.3 0L0 0Z" fill="#6198ff"></path><path d="M0 158L12.3 161.5C24.7 165 49.3 172 74 190C98.7 208 123.3 237 148 247.8C172.7 258.7 197.3 251.3 221.8 241.3C246.3 231.3 270.7 218.7 295.2 225C319.7 231.3 344.3 256.7 369 252.2C393.7 247.7 418.3 213.3 443 207.8C467.7 202.3 492.3 225.7 517 224.8C541.7 224 566.3 199 591 203.5C615.7 208 640.3 242 664.8 249.2C689.3 256.3 713.7 236.7 738.2 229.5C762.7 222.3 787.3 227.7 812 237.5C836.7 247.3 861.3 261.7 886 260.8C910.7 260 935.3 244 947.7 236L960 228L960 112L947.7 107.5C935.3 103 910.7 94 886 92.3C861.3 90.7 836.7 96.3 812 100C787.3 103.7 762.7 105.3 738.2 100.8C713.7 96.3 689.3 85.7 664.8 80.3C640.3 75 615.7 75 591 72.2C566.3 69.3 541.7 63.7 517 68.2C492.3 72.7 467.7 87.3 443 90.2C418.3 93 393.7 84 369 84C344.3 84 319.7 93 295.2 93.8C270.7 94.7 246.3 87.3 221.8 84.5C197.3 81.7 172.7 83.3 148 85.2C123.3 87 98.7 89 74 86.3C49.3 83.7 24.7 76.3 12.3 72.7L0 69Z" fill="#3c80ff"></path><path d="M0 249L12.3 254.5C24.7 260 49.3 271 74 286.3C98.7 301.7 123.3 321.3 148 328.5C172.7 335.7 197.3 330.3 221.8 315C246.3 299.7 270.7 274.3 295.2 282.5C319.7 290.7 344.3 332.3 369 334.2C393.7 336 418.3 298 443 284.5C467.7 271 492.3 282 517 283C541.7 284 566.3 275 591 287.5C615.7 300 640.3 334 664.8 342C689.3 350 713.7 332 738.2 318.5C762.7 305 787.3 296 812 299.7C836.7 303.3 861.3 319.7 886 317.8C910.7 316 935.3 296 947.7 286L960 276L960 226L947.7 234C935.3 242 910.7 258 886 258.8C861.3 259.7 836.7 245.3 812 235.5C787.3 225.7 762.7 220.3 738.2 227.5C713.7 234.7 689.3 254.3 664.8 247.2C640.3 240 615.7 206 591 201.5C566.3 197 541.7 222 517 222.8C492.3 223.7 467.7 200.3 443 205.8C418.3 211.3 393.7 245.7 369 250.2C344.3 254.7 319.7 229.3 295.2 223C270.7 216.7 246.3 229.3 221.8 239.3C197.3 249.3 172.7 256.7 148 245.8C123.3 235 98.7 206 74 188C49.3 170 24.7 163 12.3 159.5L0 156Z" fill="#0066ff"></path><path d="M0 325L12.3 330.3C24.7 335.7 49.3 346.3 74 360.7C98.7 375 123.3 393 148 403C172.7 413 197.3 415 221.8 402.5C246.3 390 270.7 363 295.2 370.2C319.7 377.3 344.3 418.7 369 413.2C393.7 407.7 418.3 355.3 443 336.5C467.7 317.7 492.3 332.3 517 339.7C541.7 347 566.3 347 591 365.8C615.7 384.7 640.3 422.3 664.8 429.5C689.3 436.7 713.7 413.3 738.2 399C762.7 384.7 787.3 379.3 812 381.2C836.7 383 861.3 392 886 386.5C910.7 381 935.3 361 947.7 351L960 341L960 274L947.7 284C935.3 294 910.7 314 886 315.8C861.3 317.7 836.7 301.3 812 297.7C787.3 294 762.7 303 738.2 316.5C713.7 330 689.3 348 664.8 340C640.3 332 615.7 298 591 285.5C566.3 273 541.7 282 517 281C492.3 280 467.7 269 443 282.5C418.3 296 393.7 334 369 332.2C344.3 330.3 319.7 288.7 295.2 280.5C270.7 272.3 246.3 297.7 221.8 313C197.3 328.3 172.7 333.7 148 326.5C123.3 319.3 98.7 299.7 74 284.3C49.3 269 24.7 258 12.3 252.5L0 247Z" fill="#0059dd"></path><path d="M0 541L12.3 541C24.7 541 49.3 541 74 541C98.7 541 123.3 541 148 541C172.7 541 197.3 541 221.8 541C246.3 541 270.7 541 295.2 541C319.7 541 344.3 541 369 541C393.7 541 418.3 541 443 541C467.7 541 492.3 541 517 541C541.7 541 566.3 541 591 541C615.7 541 640.3 541 664.8 541C689.3 541 713.7 541 738.2 541C762.7 541 787.3 541 812 541C836.7 541 861.3 541 886 541C910.7 541 935.3 541 947.7 541L960 541L960 339L947.7 349C935.3 359 910.7 379 886 384.5C861.3 390 836.7 381 812 379.2C787.3 377.3 762.7 382.7 738.2 397C713.7 411.3 689.3 434.7 664.8 427.5C640.3 420.3 615.7 382.7 591 363.8C566.3 345 541.7 345 517 337.7C492.3 330.3 467.7 315.7 443 334.5C418.3 353.3 393.7 405.7 369 411.2C344.3 416.7 319.7 375.3 295.2 368.2C270.7 361 246.3 388 221.8 400.5C197.3 413 172.7 411 148 401C123.3 391 98.7 373 74 358.7C49.3 344.3 24.7 333.7 12.3 328.3L0 323Z" fill="#004cbb"></path></svg>